<mxfile host="app.diagrams.net" modified="2023-08-14T14:19:32.737Z" agent="Mozilla/5.0 (Windows NT 10.0; Win64; x64) AppleWebKit/537.36 (KHTML, like Gecko) Chrome/115.0.0.0 Safari/537.36" etag="pY1gw1IO8oWiCiMo6soW" version="21.6.8" type="device" pages="9">
  <diagram name="Página-1" id="H6CZZJDaZ3A76MP3MWaN">
    <mxGraphModel dx="880" dy="470" grid="1" gridSize="10" guides="1" tooltips="1" connect="1" arrows="1" fold="1" page="1" pageScale="1" pageWidth="827" pageHeight="1169" math="0" shadow="0">
      <root>
        <mxCell id="0" />
        <mxCell id="1" parent="0" />
        <mxCell id="rmhpEG-eFEdcJl3DfR7P-1" style="edgeStyle=orthogonalEdgeStyle;rounded=0;orthogonalLoop=1;jettySize=auto;html=1;exitX=0.5;exitY=1;exitDx=0;exitDy=0;" parent="1" source="GiLqXCU0smTAHttTTbOr-2" target="GiLqXCU0smTAHttTTbOr-11" edge="1">
          <mxGeometry relative="1" as="geometry" />
        </mxCell>
        <mxCell id="GiLqXCU0smTAHttTTbOr-2" value="leia o primeiro numero" style="rounded=1;whiteSpace=wrap;html=1;rotation=0;strokeWidth=2;" parent="1" vertex="1">
          <mxGeometry x="334" y="280" width="160" height="90" as="geometry" />
        </mxCell>
        <mxCell id="rmhpEG-eFEdcJl3DfR7P-2" style="edgeStyle=orthogonalEdgeStyle;rounded=0;orthogonalLoop=1;jettySize=auto;html=1;exitX=0.5;exitY=1;exitDx=0;exitDy=0;entryX=0.5;entryY=0;entryDx=0;entryDy=0;" parent="1" source="GiLqXCU0smTAHttTTbOr-11" target="GiLqXCU0smTAHttTTbOr-13" edge="1">
          <mxGeometry relative="1" as="geometry" />
        </mxCell>
        <mxCell id="GiLqXCU0smTAHttTTbOr-11" value="leia o segundo numero" style="rounded=1;whiteSpace=wrap;html=1;rotation=0;" parent="1" vertex="1">
          <mxGeometry x="334" y="410" width="160" height="90" as="geometry" />
        </mxCell>
        <mxCell id="rmhpEG-eFEdcJl3DfR7P-5" style="edgeStyle=orthogonalEdgeStyle;rounded=0;orthogonalLoop=1;jettySize=auto;html=1;exitX=0.5;exitY=1;exitDx=0;exitDy=0;entryX=0.5;entryY=0;entryDx=0;entryDy=0;" parent="1" source="GiLqXCU0smTAHttTTbOr-13" target="GiLqXCU0smTAHttTTbOr-15" edge="1">
          <mxGeometry relative="1" as="geometry" />
        </mxCell>
        <mxCell id="GiLqXCU0smTAHttTTbOr-13" value="some os numeros" style="rounded=1;whiteSpace=wrap;html=1;rotation=0;" parent="1" vertex="1">
          <mxGeometry x="334" y="540" width="160" height="90" as="geometry" />
        </mxCell>
        <mxCell id="rmhpEG-eFEdcJl3DfR7P-6" style="edgeStyle=orthogonalEdgeStyle;rounded=0;orthogonalLoop=1;jettySize=auto;html=1;exitX=0.5;exitY=1;exitDx=0;exitDy=0;entryX=0.5;entryY=0;entryDx=0;entryDy=0;" parent="1" source="GiLqXCU0smTAHttTTbOr-15" target="GiLqXCU0smTAHttTTbOr-28" edge="1">
          <mxGeometry relative="1" as="geometry" />
        </mxCell>
        <mxCell id="GiLqXCU0smTAHttTTbOr-15" value="divida a soma por 2" style="rounded=1;whiteSpace=wrap;html=1;rotation=0;" parent="1" vertex="1">
          <mxGeometry x="334" y="670" width="160" height="90" as="geometry" />
        </mxCell>
        <mxCell id="GiLqXCU0smTAHttTTbOr-24" style="edgeStyle=orthogonalEdgeStyle;rounded=0;orthogonalLoop=1;jettySize=auto;html=1;exitX=0.5;exitY=1;exitDx=0;exitDy=0;entryX=0.5;entryY=0;entryDx=0;entryDy=0;" parent="1" source="GiLqXCU0smTAHttTTbOr-19" target="GiLqXCU0smTAHttTTbOr-2" edge="1">
          <mxGeometry relative="1" as="geometry" />
        </mxCell>
        <mxCell id="GiLqXCU0smTAHttTTbOr-19" value="" style="ellipse;whiteSpace=wrap;html=1;rounded=1;fillColor=#008a00;strokeColor=#005700;fontColor=#ffffff;" parent="1" vertex="1">
          <mxGeometry x="374" y="160" width="80" height="80" as="geometry" />
        </mxCell>
        <mxCell id="GiLqXCU0smTAHttTTbOr-21" value="" style="ellipse;whiteSpace=wrap;html=1;rounded=1;fillColor=#fa6800;strokeColor=#C73500;fontColor=#000000;" parent="1" vertex="1">
          <mxGeometry x="374" y="930" width="80" height="80" as="geometry" />
        </mxCell>
        <mxCell id="rmhpEG-eFEdcJl3DfR7P-7" style="edgeStyle=orthogonalEdgeStyle;rounded=0;orthogonalLoop=1;jettySize=auto;html=1;exitX=0.5;exitY=1;exitDx=0;exitDy=0;" parent="1" source="GiLqXCU0smTAHttTTbOr-28" target="GiLqXCU0smTAHttTTbOr-21" edge="1">
          <mxGeometry relative="1" as="geometry" />
        </mxCell>
        <mxCell id="GiLqXCU0smTAHttTTbOr-28" value="imprima o resultado" style="rounded=1;whiteSpace=wrap;html=1;rotation=0;" parent="1" vertex="1">
          <mxGeometry x="334" y="800" width="160" height="90" as="geometry" />
        </mxCell>
      </root>
    </mxGraphModel>
  </diagram>
  <diagram id="2WiTlAqmNzAVXMabmFwm" name="Página-2">
    <mxGraphModel dx="1120" dy="438" grid="1" gridSize="10" guides="1" tooltips="1" connect="1" arrows="1" fold="1" page="1" pageScale="1" pageWidth="827" pageHeight="1169" math="0" shadow="0">
      <root>
        <mxCell id="0" />
        <mxCell id="1" parent="0" />
        <mxCell id="jKcDJcE-GAd4kW_2jr4Q-3" value="" style="edgeStyle=orthogonalEdgeStyle;rounded=0;orthogonalLoop=1;jettySize=auto;html=1;" parent="1" source="jKcDJcE-GAd4kW_2jr4Q-1" target="jKcDJcE-GAd4kW_2jr4Q-2" edge="1">
          <mxGeometry relative="1" as="geometry" />
        </mxCell>
        <mxCell id="jKcDJcE-GAd4kW_2jr4Q-1" value="" style="ellipse;whiteSpace=wrap;html=1;fillColor=#008a00;fontColor=#ffffff;strokeColor=#005700;" parent="1" vertex="1">
          <mxGeometry x="374" y="185" width="80" height="80" as="geometry" />
        </mxCell>
        <mxCell id="jKcDJcE-GAd4kW_2jr4Q-5" value="" style="edgeStyle=orthogonalEdgeStyle;rounded=0;orthogonalLoop=1;jettySize=auto;html=1;" parent="1" source="jKcDJcE-GAd4kW_2jr4Q-2" target="jKcDJcE-GAd4kW_2jr4Q-4" edge="1">
          <mxGeometry relative="1" as="geometry" />
        </mxCell>
        <mxCell id="jKcDJcE-GAd4kW_2jr4Q-2" value="leia a primeira nota" style="whiteSpace=wrap;html=1;" parent="1" vertex="1">
          <mxGeometry x="354" y="295" width="120" height="60" as="geometry" />
        </mxCell>
        <mxCell id="jKcDJcE-GAd4kW_2jr4Q-7" value="" style="edgeStyle=orthogonalEdgeStyle;rounded=0;orthogonalLoop=1;jettySize=auto;html=1;" parent="1" source="jKcDJcE-GAd4kW_2jr4Q-4" target="jKcDJcE-GAd4kW_2jr4Q-6" edge="1">
          <mxGeometry relative="1" as="geometry" />
        </mxCell>
        <mxCell id="jKcDJcE-GAd4kW_2jr4Q-4" value="leia a segunda nota" style="whiteSpace=wrap;html=1;" parent="1" vertex="1">
          <mxGeometry x="354" y="385" width="120" height="60" as="geometry" />
        </mxCell>
        <mxCell id="jKcDJcE-GAd4kW_2jr4Q-9" value="" style="edgeStyle=orthogonalEdgeStyle;rounded=0;orthogonalLoop=1;jettySize=auto;html=1;" parent="1" source="jKcDJcE-GAd4kW_2jr4Q-6" target="jKcDJcE-GAd4kW_2jr4Q-8" edge="1">
          <mxGeometry relative="1" as="geometry" />
        </mxCell>
        <mxCell id="jKcDJcE-GAd4kW_2jr4Q-6" value="some as notas" style="whiteSpace=wrap;html=1;" parent="1" vertex="1">
          <mxGeometry x="354" y="475" width="120" height="60" as="geometry" />
        </mxCell>
        <mxCell id="jKcDJcE-GAd4kW_2jr4Q-15" value="" style="edgeStyle=orthogonalEdgeStyle;rounded=0;orthogonalLoop=1;jettySize=auto;html=1;" parent="1" source="jKcDJcE-GAd4kW_2jr4Q-8" target="jKcDJcE-GAd4kW_2jr4Q-14" edge="1">
          <mxGeometry relative="1" as="geometry" />
        </mxCell>
        <mxCell id="jKcDJcE-GAd4kW_2jr4Q-8" value="divida a soma por 2&lt;br&gt;&lt;b&gt;(média)&lt;/b&gt;" style="whiteSpace=wrap;html=1;" parent="1" vertex="1">
          <mxGeometry x="354" y="565" width="120" height="60" as="geometry" />
        </mxCell>
        <mxCell id="5qbx4bN7GCgbk9aEmt92-3" style="edgeStyle=orthogonalEdgeStyle;rounded=0;orthogonalLoop=1;jettySize=auto;html=1;exitX=1;exitY=1;exitDx=0;exitDy=0;entryX=0.5;entryY=0;entryDx=0;entryDy=0;" parent="1" source="jKcDJcE-GAd4kW_2jr4Q-14" target="jKcDJcE-GAd4kW_2jr4Q-22" edge="1">
          <mxGeometry relative="1" as="geometry" />
        </mxCell>
        <mxCell id="5qbx4bN7GCgbk9aEmt92-4" style="edgeStyle=orthogonalEdgeStyle;rounded=0;orthogonalLoop=1;jettySize=auto;html=1;exitX=0;exitY=1;exitDx=0;exitDy=0;entryX=0.5;entryY=0;entryDx=0;entryDy=0;" parent="1" source="jKcDJcE-GAd4kW_2jr4Q-14" target="jKcDJcE-GAd4kW_2jr4Q-18" edge="1">
          <mxGeometry relative="1" as="geometry" />
        </mxCell>
        <mxCell id="jKcDJcE-GAd4kW_2jr4Q-14" value="" style="rhombus;whiteSpace=wrap;html=1;" parent="1" vertex="1">
          <mxGeometry x="374" y="660" width="80" height="80" as="geometry" />
        </mxCell>
        <mxCell id="jKcDJcE-GAd4kW_2jr4Q-25" value="" style="edgeStyle=orthogonalEdgeStyle;rounded=0;orthogonalLoop=1;jettySize=auto;html=1;" parent="1" source="jKcDJcE-GAd4kW_2jr4Q-18" target="jKcDJcE-GAd4kW_2jr4Q-24" edge="1">
          <mxGeometry relative="1" as="geometry">
            <Array as="points">
              <mxPoint x="254" y="945" />
            </Array>
          </mxGeometry>
        </mxCell>
        <mxCell id="jKcDJcE-GAd4kW_2jr4Q-18" value="exiba #partiuestágio" style="whiteSpace=wrap;html=1;" parent="1" vertex="1">
          <mxGeometry x="194" y="810" width="120" height="60" as="geometry" />
        </mxCell>
        <mxCell id="jKcDJcE-GAd4kW_2jr4Q-26" style="edgeStyle=orthogonalEdgeStyle;rounded=0;orthogonalLoop=1;jettySize=auto;html=1;entryX=1;entryY=0.5;entryDx=0;entryDy=0;" parent="1" source="jKcDJcE-GAd4kW_2jr4Q-22" target="jKcDJcE-GAd4kW_2jr4Q-24" edge="1">
          <mxGeometry relative="1" as="geometry">
            <Array as="points">
              <mxPoint x="574" y="945" />
            </Array>
          </mxGeometry>
        </mxCell>
        <mxCell id="jKcDJcE-GAd4kW_2jr4Q-22" value="exiba #partiutentardenovo" style="whiteSpace=wrap;html=1;" parent="1" vertex="1">
          <mxGeometry x="514" y="810" width="120" height="60" as="geometry" />
        </mxCell>
        <mxCell id="jKcDJcE-GAd4kW_2jr4Q-24" value="" style="ellipse;whiteSpace=wrap;html=1;fillColor=#fa6800;fontColor=#000000;strokeColor=#C73500;" parent="1" vertex="1">
          <mxGeometry x="374" y="905" width="80" height="80" as="geometry" />
        </mxCell>
        <mxCell id="5qbx4bN7GCgbk9aEmt92-1" value="media =&amp;gt; 5" style="text;html=1;align=center;verticalAlign=middle;resizable=0;points=[];autosize=1;strokeColor=none;fillColor=none;" parent="1" vertex="1">
          <mxGeometry x="204" y="685" width="80" height="30" as="geometry" />
        </mxCell>
        <mxCell id="5qbx4bN7GCgbk9aEmt92-2" value="else&amp;nbsp;" style="text;html=1;align=center;verticalAlign=middle;resizable=0;points=[];autosize=1;strokeColor=none;fillColor=none;" parent="1" vertex="1">
          <mxGeometry x="549" y="685" width="50" height="30" as="geometry" />
        </mxCell>
      </root>
    </mxGraphModel>
  </diagram>
  <diagram id="hwgz74N4RbA0Jtk6_3F_" name="Página-3">
    <mxGraphModel dx="1120" dy="438" grid="1" gridSize="10" guides="1" tooltips="1" connect="1" arrows="1" fold="1" page="1" pageScale="1" pageWidth="827" pageHeight="1169" math="0" shadow="0">
      <root>
        <mxCell id="0" />
        <mxCell id="1" parent="0" />
        <mxCell id="AX14M4wZ8D0rtmwBEDEG-3" value="" style="edgeStyle=orthogonalEdgeStyle;rounded=0;orthogonalLoop=1;jettySize=auto;html=1;" parent="1" target="AX14M4wZ8D0rtmwBEDEG-2" edge="1">
          <mxGeometry relative="1" as="geometry">
            <mxPoint x="420" y="250" as="sourcePoint" />
          </mxGeometry>
        </mxCell>
        <mxCell id="47gZDrqgDoXXHx8Yaqx1-3" value="" style="ellipse;whiteSpace=wrap;html=1;fillColor=#008a00;fontColor=#ffffff;strokeColor=#005700;" parent="1" vertex="1">
          <mxGeometry x="380" y="170" width="80" height="80" as="geometry" />
        </mxCell>
        <mxCell id="AX14M4wZ8D0rtmwBEDEG-5" value="" style="edgeStyle=orthogonalEdgeStyle;rounded=0;orthogonalLoop=1;jettySize=auto;html=1;" parent="1" source="AX14M4wZ8D0rtmwBEDEG-2" target="AX14M4wZ8D0rtmwBEDEG-4" edge="1">
          <mxGeometry relative="1" as="geometry" />
        </mxCell>
        <mxCell id="AX14M4wZ8D0rtmwBEDEG-2" value="Leia &quot;&lt;b&gt;sexo&lt;/b&gt;&quot; do usuário" style="whiteSpace=wrap;html=1;" parent="1" vertex="1">
          <mxGeometry x="360" y="290" width="120" height="60" as="geometry" />
        </mxCell>
        <mxCell id="AX14M4wZ8D0rtmwBEDEG-7" value="" style="edgeStyle=orthogonalEdgeStyle;rounded=0;orthogonalLoop=1;jettySize=auto;html=1;" parent="1" source="AX14M4wZ8D0rtmwBEDEG-4" target="AX14M4wZ8D0rtmwBEDEG-6" edge="1">
          <mxGeometry relative="1" as="geometry" />
        </mxCell>
        <mxCell id="AX14M4wZ8D0rtmwBEDEG-4" value="Leia &quot;&lt;b&gt;idade&lt;/b&gt;&quot; do usuário" style="whiteSpace=wrap;html=1;" parent="1" vertex="1">
          <mxGeometry x="360" y="390" width="120" height="60" as="geometry" />
        </mxCell>
        <mxCell id="AX14M4wZ8D0rtmwBEDEG-43" style="edgeStyle=orthogonalEdgeStyle;rounded=0;orthogonalLoop=1;jettySize=auto;html=1;exitX=0;exitY=0.5;exitDx=0;exitDy=0;entryX=1;entryY=0.5;entryDx=0;entryDy=0;" parent="1" source="AX14M4wZ8D0rtmwBEDEG-6" target="AX14M4wZ8D0rtmwBEDEG-10" edge="1">
          <mxGeometry relative="1" as="geometry" />
        </mxCell>
        <mxCell id="gdsL8GGrKXuAbGuvxiwc-1" style="edgeStyle=orthogonalEdgeStyle;rounded=0;orthogonalLoop=1;jettySize=auto;html=1;exitX=0;exitY=1;exitDx=0;exitDy=0;entryX=1;entryY=0.5;entryDx=0;entryDy=0;" parent="1" source="AX14M4wZ8D0rtmwBEDEG-6" target="AX14M4wZ8D0rtmwBEDEG-30" edge="1">
          <mxGeometry relative="1" as="geometry">
            <Array as="points">
              <mxPoint x="400" y="630" />
            </Array>
          </mxGeometry>
        </mxCell>
        <mxCell id="gdsL8GGrKXuAbGuvxiwc-3" style="edgeStyle=orthogonalEdgeStyle;rounded=0;orthogonalLoop=1;jettySize=auto;html=1;exitX=1;exitY=1;exitDx=0;exitDy=0;entryX=0;entryY=0.5;entryDx=0;entryDy=0;" parent="1" source="AX14M4wZ8D0rtmwBEDEG-6" target="AX14M4wZ8D0rtmwBEDEG-33" edge="1">
          <mxGeometry relative="1" as="geometry">
            <Array as="points">
              <mxPoint x="440" y="630" />
            </Array>
          </mxGeometry>
        </mxCell>
        <mxCell id="gdsL8GGrKXuAbGuvxiwc-5" style="edgeStyle=orthogonalEdgeStyle;rounded=0;orthogonalLoop=1;jettySize=auto;html=1;exitX=1;exitY=0.5;exitDx=0;exitDy=0;entryX=0;entryY=0.5;entryDx=0;entryDy=0;" parent="1" source="AX14M4wZ8D0rtmwBEDEG-6" target="AX14M4wZ8D0rtmwBEDEG-16" edge="1">
          <mxGeometry relative="1" as="geometry" />
        </mxCell>
        <mxCell id="AX14M4wZ8D0rtmwBEDEG-6" value="" style="rhombus;whiteSpace=wrap;html=1;" parent="1" vertex="1">
          <mxGeometry x="380" y="480" width="80" height="80" as="geometry" />
        </mxCell>
        <mxCell id="AX14M4wZ8D0rtmwBEDEG-37" style="edgeStyle=orthogonalEdgeStyle;rounded=0;orthogonalLoop=1;jettySize=auto;html=1;exitX=0;exitY=0.5;exitDx=0;exitDy=0;entryX=0;entryY=0.5;entryDx=0;entryDy=0;" parent="1" source="AX14M4wZ8D0rtmwBEDEG-10" target="AX14M4wZ8D0rtmwBEDEG-35" edge="1">
          <mxGeometry relative="1" as="geometry" />
        </mxCell>
        <mxCell id="AX14M4wZ8D0rtmwBEDEG-10" value="imprima: Você é homem e menino" style="whiteSpace=wrap;html=1;" parent="1" vertex="1">
          <mxGeometry x="60" y="490" width="120" height="60" as="geometry" />
        </mxCell>
        <mxCell id="AX14M4wZ8D0rtmwBEDEG-39" style="edgeStyle=orthogonalEdgeStyle;rounded=0;orthogonalLoop=1;jettySize=auto;html=1;exitX=1;exitY=0.5;exitDx=0;exitDy=0;entryX=1;entryY=0.5;entryDx=0;entryDy=0;" parent="1" source="AX14M4wZ8D0rtmwBEDEG-16" target="AX14M4wZ8D0rtmwBEDEG-35" edge="1">
          <mxGeometry relative="1" as="geometry" />
        </mxCell>
        <mxCell id="AX14M4wZ8D0rtmwBEDEG-16" value="imprima: Você é homem maior de idade" style="whiteSpace=wrap;html=1;" parent="1" vertex="1">
          <mxGeometry x="660" y="490" width="120" height="60" as="geometry" />
        </mxCell>
        <mxCell id="AX14M4wZ8D0rtmwBEDEG-38" style="edgeStyle=orthogonalEdgeStyle;rounded=0;orthogonalLoop=1;jettySize=auto;html=1;exitX=0;exitY=0.5;exitDx=0;exitDy=0;" parent="1" source="AX14M4wZ8D0rtmwBEDEG-30" edge="1">
          <mxGeometry relative="1" as="geometry">
            <mxPoint x="40" y="630.2857142857144" as="targetPoint" />
          </mxGeometry>
        </mxCell>
        <mxCell id="AX14M4wZ8D0rtmwBEDEG-30" value="imprima:&amp;nbsp;Você é mulher e menina" style="whiteSpace=wrap;html=1;" parent="1" vertex="1">
          <mxGeometry x="60" y="600" width="120" height="60" as="geometry" />
        </mxCell>
        <mxCell id="AX14M4wZ8D0rtmwBEDEG-40" style="edgeStyle=orthogonalEdgeStyle;rounded=0;orthogonalLoop=1;jettySize=auto;html=1;exitX=1;exitY=0.5;exitDx=0;exitDy=0;" parent="1" source="AX14M4wZ8D0rtmwBEDEG-33" edge="1">
          <mxGeometry relative="1" as="geometry">
            <mxPoint x="800" y="630.2857142857144" as="targetPoint" />
          </mxGeometry>
        </mxCell>
        <mxCell id="AX14M4wZ8D0rtmwBEDEG-33" value="imprima: Você é mulher maior de idade" style="whiteSpace=wrap;html=1;" parent="1" vertex="1">
          <mxGeometry x="660" y="600" width="120" height="60" as="geometry" />
        </mxCell>
        <mxCell id="AX14M4wZ8D0rtmwBEDEG-35" value="" style="ellipse;whiteSpace=wrap;html=1;fillColor=#fa6800;fontColor=#000000;strokeColor=#C73500;" parent="1" vertex="1">
          <mxGeometry x="380" y="670" width="80" height="80" as="geometry" />
        </mxCell>
        <mxCell id="AX14M4wZ8D0rtmwBEDEG-44" value="sexo == h &amp;amp; idade &amp;lt; 18" style="text;html=1;align=center;verticalAlign=middle;resizable=0;points=[];autosize=1;strokeColor=none;fillColor=none;" parent="1" vertex="1">
          <mxGeometry x="205" y="488" width="150" height="30" as="geometry" />
        </mxCell>
        <mxCell id="EqXh3jBOPlepmVhk-BQf-1" value="sexo == m &amp;amp; idade &amp;lt;18" style="text;html=1;align=center;verticalAlign=middle;resizable=0;points=[];autosize=1;strokeColor=none;fillColor=none;" parent="1" vertex="1">
          <mxGeometry x="220" y="600" width="150" height="30" as="geometry" />
        </mxCell>
        <mxCell id="gdsL8GGrKXuAbGuvxiwc-2" value="sexo == m &amp;amp; idade &amp;gt;17" style="text;html=1;align=center;verticalAlign=middle;resizable=0;points=[];autosize=1;strokeColor=none;fillColor=none;" parent="1" vertex="1">
          <mxGeometry x="475" y="590" width="150" height="30" as="geometry" />
        </mxCell>
        <mxCell id="gdsL8GGrKXuAbGuvxiwc-4" value="sexo == h &amp;amp; idade &amp;gt;17" style="text;html=1;align=center;verticalAlign=middle;resizable=0;points=[];autosize=1;strokeColor=none;fillColor=none;" parent="1" vertex="1">
          <mxGeometry x="480" y="488" width="140" height="30" as="geometry" />
        </mxCell>
      </root>
    </mxGraphModel>
  </diagram>
  <diagram id="ynu5zWJEiRXFeJz-fa0A" name="Página-4">
    <mxGraphModel dx="1318" dy="555" grid="1" gridSize="10" guides="1" tooltips="1" connect="1" arrows="1" fold="1" page="1" pageScale="1" pageWidth="827" pageHeight="1169" math="0" shadow="0">
      <root>
        <mxCell id="0" />
        <mxCell id="1" parent="0" />
        <mxCell id="etqhUvsWyQRm-McVKLlM-3" value="" style="edgeStyle=orthogonalEdgeStyle;rounded=0;orthogonalLoop=1;jettySize=auto;html=1;" parent="1" source="etqhUvsWyQRm-McVKLlM-1" target="etqhUvsWyQRm-McVKLlM-2" edge="1">
          <mxGeometry relative="1" as="geometry" />
        </mxCell>
        <mxCell id="etqhUvsWyQRm-McVKLlM-1" value="" style="ellipse;whiteSpace=wrap;html=1;fillColor=#008a00;fontColor=#ffffff;strokeColor=#005700;" parent="1" vertex="1">
          <mxGeometry x="210" y="300" width="80" height="80" as="geometry" />
        </mxCell>
        <mxCell id="etqhUvsWyQRm-McVKLlM-5" value="" style="edgeStyle=orthogonalEdgeStyle;rounded=0;orthogonalLoop=1;jettySize=auto;html=1;" parent="1" source="etqhUvsWyQRm-McVKLlM-2" target="etqhUvsWyQRm-McVKLlM-4" edge="1">
          <mxGeometry relative="1" as="geometry" />
        </mxCell>
        <mxCell id="etqhUvsWyQRm-McVKLlM-2" value="Leia Estado de Nascimento (&lt;b&gt;ES&lt;/b&gt;)" style="whiteSpace=wrap;html=1;" parent="1" vertex="1">
          <mxGeometry x="340" y="310" width="120" height="60" as="geometry" />
        </mxCell>
        <mxCell id="etqhUvsWyQRm-McVKLlM-8" value="" style="edgeStyle=orthogonalEdgeStyle;rounded=0;orthogonalLoop=1;jettySize=auto;html=1;" parent="1" source="etqhUvsWyQRm-McVKLlM-4" target="etqhUvsWyQRm-McVKLlM-7" edge="1">
          <mxGeometry relative="1" as="geometry">
            <Array as="points">
              <mxPoint x="564" y="570" />
              <mxPoint x="400" y="570" />
            </Array>
          </mxGeometry>
        </mxCell>
        <mxCell id="IHtmsZr_s-w7X0BS1OfV-5" value="" style="edgeStyle=orthogonalEdgeStyle;rounded=0;orthogonalLoop=1;jettySize=auto;html=1;" parent="1" source="etqhUvsWyQRm-McVKLlM-4" target="IHtmsZr_s-w7X0BS1OfV-4" edge="1">
          <mxGeometry relative="1" as="geometry" />
        </mxCell>
        <mxCell id="etqhUvsWyQRm-McVKLlM-4" value="" style="rhombus;whiteSpace=wrap;html=1;" parent="1" vertex="1">
          <mxGeometry x="524" y="300" width="80" height="80" as="geometry" />
        </mxCell>
        <mxCell id="IHtmsZr_s-w7X0BS1OfV-2" style="edgeStyle=orthogonalEdgeStyle;rounded=0;orthogonalLoop=1;jettySize=auto;html=1;exitX=0.5;exitY=0;exitDx=0;exitDy=0;entryX=0.5;entryY=1;entryDx=0;entryDy=0;" parent="1" source="etqhUvsWyQRm-McVKLlM-7" target="etqhUvsWyQRm-McVKLlM-2" edge="1">
          <mxGeometry relative="1" as="geometry" />
        </mxCell>
        <mxCell id="etqhUvsWyQRm-McVKLlM-7" value="exiba &quot;Estado inválido, insira novamente&quot;" style="whiteSpace=wrap;html=1;" parent="1" vertex="1">
          <mxGeometry x="340" y="450" width="120" height="60" as="geometry" />
        </mxCell>
        <mxCell id="etqhUvsWyQRm-McVKLlM-10" value="else" style="text;html=1;align=center;verticalAlign=middle;resizable=0;points=[];autosize=1;strokeColor=none;fillColor=none;" parent="1" vertex="1">
          <mxGeometry x="455" y="525" width="50" height="30" as="geometry" />
        </mxCell>
        <mxCell id="IHtmsZr_s-w7X0BS1OfV-3" value="Caso ES seja válido" style="text;html=1;align=center;verticalAlign=middle;resizable=0;points=[];autosize=1;strokeColor=none;fillColor=none;" parent="1" vertex="1">
          <mxGeometry x="604" y="310" width="130" height="30" as="geometry" />
        </mxCell>
        <mxCell id="IHtmsZr_s-w7X0BS1OfV-7" value="" style="edgeStyle=orthogonalEdgeStyle;rounded=0;orthogonalLoop=1;jettySize=auto;html=1;" parent="1" source="IHtmsZr_s-w7X0BS1OfV-4" target="IHtmsZr_s-w7X0BS1OfV-6" edge="1">
          <mxGeometry relative="1" as="geometry" />
        </mxCell>
        <mxCell id="IHtmsZr_s-w7X0BS1OfV-4" value="Leia quantidade de &quot;&lt;b&gt;filhos&quot;&lt;/b&gt;" style="whiteSpace=wrap;html=1;" parent="1" vertex="1">
          <mxGeometry x="750" y="310" width="120" height="60" as="geometry" />
        </mxCell>
        <mxCell id="IHtmsZr_s-w7X0BS1OfV-9" value="" style="edgeStyle=orthogonalEdgeStyle;rounded=0;orthogonalLoop=1;jettySize=auto;html=1;" parent="1" source="IHtmsZr_s-w7X0BS1OfV-6" target="IHtmsZr_s-w7X0BS1OfV-8" edge="1">
          <mxGeometry relative="1" as="geometry">
            <Array as="points">
              <mxPoint x="970" y="570" />
              <mxPoint x="810" y="570" />
            </Array>
          </mxGeometry>
        </mxCell>
        <mxCell id="IHtmsZr_s-w7X0BS1OfV-16" style="edgeStyle=orthogonalEdgeStyle;rounded=0;orthogonalLoop=1;jettySize=auto;html=1;exitX=1;exitY=0.5;exitDx=0;exitDy=0;entryX=0.5;entryY=0;entryDx=0;entryDy=0;" parent="1" source="IHtmsZr_s-w7X0BS1OfV-6" target="IHtmsZr_s-w7X0BS1OfV-15" edge="1">
          <mxGeometry relative="1" as="geometry" />
        </mxCell>
        <mxCell id="IHtmsZr_s-w7X0BS1OfV-6" value="" style="rhombus;whiteSpace=wrap;html=1;" parent="1" vertex="1">
          <mxGeometry x="930" y="300" width="80" height="80" as="geometry" />
        </mxCell>
        <mxCell id="IHtmsZr_s-w7X0BS1OfV-14" style="edgeStyle=orthogonalEdgeStyle;rounded=0;orthogonalLoop=1;jettySize=auto;html=1;exitX=0.5;exitY=0;exitDx=0;exitDy=0;entryX=0.5;entryY=1;entryDx=0;entryDy=0;" parent="1" source="IHtmsZr_s-w7X0BS1OfV-8" target="IHtmsZr_s-w7X0BS1OfV-4" edge="1">
          <mxGeometry relative="1" as="geometry" />
        </mxCell>
        <mxCell id="IHtmsZr_s-w7X0BS1OfV-8" value="Exiba &quot;o valor deve ser entre 0 e 15&quot;" style="whiteSpace=wrap;html=1;" parent="1" vertex="1">
          <mxGeometry x="750" y="450" width="120" height="60" as="geometry" />
        </mxCell>
        <mxCell id="IHtmsZr_s-w7X0BS1OfV-10" value="else" style="text;html=1;align=center;verticalAlign=middle;resizable=0;points=[];autosize=1;strokeColor=none;fillColor=none;" parent="1" vertex="1">
          <mxGeometry x="860" y="525" width="50" height="30" as="geometry" />
        </mxCell>
        <mxCell id="IHtmsZr_s-w7X0BS1OfV-13" value="Caso filhos&amp;nbsp;=&amp;gt; 0 &amp;amp;&amp;amp; &amp;lt; 16" style="text;html=1;align=center;verticalAlign=middle;resizable=0;points=[];autosize=1;strokeColor=none;fillColor=none;" parent="1" vertex="1">
          <mxGeometry x="1010" y="295" width="160" height="30" as="geometry" />
        </mxCell>
        <mxCell id="IHtmsZr_s-w7X0BS1OfV-19" value="" style="edgeStyle=orthogonalEdgeStyle;rounded=0;orthogonalLoop=1;jettySize=auto;html=1;" parent="1" source="IHtmsZr_s-w7X0BS1OfV-15" target="IHtmsZr_s-w7X0BS1OfV-18" edge="1">
          <mxGeometry relative="1" as="geometry" />
        </mxCell>
        <mxCell id="IHtmsZr_s-w7X0BS1OfV-21" value="" style="edgeStyle=orthogonalEdgeStyle;rounded=0;orthogonalLoop=1;jettySize=auto;html=1;" parent="1" source="IHtmsZr_s-w7X0BS1OfV-15" target="IHtmsZr_s-w7X0BS1OfV-20" edge="1">
          <mxGeometry relative="1" as="geometry">
            <Array as="points">
              <mxPoint x="1200" y="500" />
              <mxPoint x="1105" y="500" />
            </Array>
          </mxGeometry>
        </mxCell>
        <mxCell id="IHtmsZr_s-w7X0BS1OfV-27" value="" style="edgeStyle=orthogonalEdgeStyle;rounded=0;orthogonalLoop=1;jettySize=auto;html=1;" parent="1" source="IHtmsZr_s-w7X0BS1OfV-15" target="IHtmsZr_s-w7X0BS1OfV-26" edge="1">
          <mxGeometry relative="1" as="geometry">
            <Array as="points">
              <mxPoint x="1240" y="500" />
              <mxPoint x="1340" y="500" />
            </Array>
          </mxGeometry>
        </mxCell>
        <mxCell id="IHtmsZr_s-w7X0BS1OfV-31" value="" style="edgeStyle=orthogonalEdgeStyle;rounded=0;orthogonalLoop=1;jettySize=auto;html=1;" parent="1" source="IHtmsZr_s-w7X0BS1OfV-15" target="IHtmsZr_s-w7X0BS1OfV-30" edge="1">
          <mxGeometry relative="1" as="geometry" />
        </mxCell>
        <mxCell id="IHtmsZr_s-w7X0BS1OfV-37" style="edgeStyle=orthogonalEdgeStyle;rounded=0;orthogonalLoop=1;jettySize=auto;html=1;exitX=0.5;exitY=1;exitDx=0;exitDy=0;entryX=0.5;entryY=0;entryDx=0;entryDy=0;" parent="1" source="IHtmsZr_s-w7X0BS1OfV-15" target="IHtmsZr_s-w7X0BS1OfV-36" edge="1">
          <mxGeometry relative="1" as="geometry" />
        </mxCell>
        <mxCell id="9WdmQriS4XZOdGBusEXa-1" value="filhos == 1" style="edgeLabel;html=1;align=center;verticalAlign=middle;resizable=0;points=[];" vertex="1" connectable="0" parent="IHtmsZr_s-w7X0BS1OfV-37">
          <mxGeometry x="0.578" relative="1" as="geometry">
            <mxPoint x="1" as="offset" />
          </mxGeometry>
        </mxCell>
        <mxCell id="IHtmsZr_s-w7X0BS1OfV-15" value="" style="rhombus;whiteSpace=wrap;html=1;" parent="1" vertex="1">
          <mxGeometry x="1180" y="380" width="80" height="80" as="geometry" />
        </mxCell>
        <mxCell id="IHtmsZr_s-w7X0BS1OfV-46" style="edgeStyle=orthogonalEdgeStyle;rounded=0;orthogonalLoop=1;jettySize=auto;html=1;exitX=0.5;exitY=1;exitDx=0;exitDy=0;entryX=0;entryY=0.5;entryDx=0;entryDy=0;" parent="1" source="IHtmsZr_s-w7X0BS1OfV-18" target="IHtmsZr_s-w7X0BS1OfV-42" edge="1">
          <mxGeometry relative="1" as="geometry" />
        </mxCell>
        <mxCell id="IHtmsZr_s-w7X0BS1OfV-18" value="exiba &quot;#tv&amp;nbsp; #internet&amp;nbsp; #videogame&quot;" style="whiteSpace=wrap;html=1;" parent="1" vertex="1">
          <mxGeometry x="950" y="630" width="120" height="60" as="geometry" />
        </mxCell>
        <mxCell id="IHtmsZr_s-w7X0BS1OfV-47" style="edgeStyle=orthogonalEdgeStyle;rounded=0;orthogonalLoop=1;jettySize=auto;html=1;exitX=0.5;exitY=1;exitDx=0;exitDy=0;entryX=0;entryY=0.5;entryDx=0;entryDy=0;" parent="1" source="IHtmsZr_s-w7X0BS1OfV-20" target="IHtmsZr_s-w7X0BS1OfV-42" edge="1">
          <mxGeometry relative="1" as="geometry" />
        </mxCell>
        <mxCell id="IHtmsZr_s-w7X0BS1OfV-20" value="exiba &quot;#cresceiemultiplicaivos&quot;" style="whiteSpace=wrap;html=1;" parent="1" vertex="1">
          <mxGeometry x="1025" y="540" width="160" height="70" as="geometry" />
        </mxCell>
        <mxCell id="IHtmsZr_s-w7X0BS1OfV-22" value="filhos == 0" style="text;html=1;align=center;verticalAlign=middle;resizable=0;points=[];autosize=1;strokeColor=none;fillColor=none;" parent="1" vertex="1">
          <mxGeometry x="1065" y="388" width="80" height="30" as="geometry" />
        </mxCell>
        <mxCell id="IHtmsZr_s-w7X0BS1OfV-23" value="filhos &amp;gt; 3" style="text;html=1;align=center;verticalAlign=middle;resizable=0;points=[];autosize=1;strokeColor=none;fillColor=none;" parent="1" vertex="1">
          <mxGeometry x="1095" y="460" width="70" height="30" as="geometry" />
        </mxCell>
        <mxCell id="IHtmsZr_s-w7X0BS1OfV-44" style="edgeStyle=orthogonalEdgeStyle;rounded=0;orthogonalLoop=1;jettySize=auto;html=1;exitX=0.5;exitY=1;exitDx=0;exitDy=0;entryX=1;entryY=0.5;entryDx=0;entryDy=0;" parent="1" source="IHtmsZr_s-w7X0BS1OfV-26" target="IHtmsZr_s-w7X0BS1OfV-42" edge="1">
          <mxGeometry relative="1" as="geometry" />
        </mxCell>
        <mxCell id="IHtmsZr_s-w7X0BS1OfV-26" value="exiba &quot;#nãotemtv&quot;." style="whiteSpace=wrap;html=1;" parent="1" vertex="1">
          <mxGeometry x="1250" y="540" width="150" height="70" as="geometry" />
        </mxCell>
        <mxCell id="IHtmsZr_s-w7X0BS1OfV-29" value="filhos == 2" style="text;html=1;align=center;verticalAlign=middle;resizable=0;points=[];autosize=1;strokeColor=none;fillColor=none;" parent="1" vertex="1">
          <mxGeometry x="1260" y="460" width="80" height="30" as="geometry" />
        </mxCell>
        <mxCell id="IHtmsZr_s-w7X0BS1OfV-45" style="edgeStyle=orthogonalEdgeStyle;rounded=0;orthogonalLoop=1;jettySize=auto;html=1;exitX=0.5;exitY=1;exitDx=0;exitDy=0;" parent="1" source="IHtmsZr_s-w7X0BS1OfV-30" edge="1">
          <mxGeometry relative="1" as="geometry">
            <mxPoint x="1260" y="840" as="targetPoint" />
            <Array as="points">
              <mxPoint x="1420" y="840" />
            </Array>
          </mxGeometry>
        </mxCell>
        <mxCell id="IHtmsZr_s-w7X0BS1OfV-30" value="exiba &quot;#nãotemtv&amp;nbsp; #nãoteminternet #nãotemvideogame&quot;" style="whiteSpace=wrap;html=1;" parent="1" vertex="1">
          <mxGeometry x="1360" y="630" width="120" height="60" as="geometry" />
        </mxCell>
        <mxCell id="IHtmsZr_s-w7X0BS1OfV-43" style="edgeStyle=orthogonalEdgeStyle;rounded=0;orthogonalLoop=1;jettySize=auto;html=1;exitX=0.5;exitY=1;exitDx=0;exitDy=0;entryX=0.5;entryY=0;entryDx=0;entryDy=0;" parent="1" source="IHtmsZr_s-w7X0BS1OfV-36" target="IHtmsZr_s-w7X0BS1OfV-42" edge="1">
          <mxGeometry relative="1" as="geometry" />
        </mxCell>
        <mxCell id="IHtmsZr_s-w7X0BS1OfV-36" value="exiba &quot;#nãotemvideogame&quot;." style="whiteSpace=wrap;html=1;" parent="1" vertex="1">
          <mxGeometry x="1160" y="690" width="120" height="60" as="geometry" />
        </mxCell>
        <mxCell id="IHtmsZr_s-w7X0BS1OfV-40" value="filhos == 3" style="text;html=1;align=center;verticalAlign=middle;resizable=0;points=[];autosize=1;strokeColor=none;fillColor=none;" parent="1" vertex="1">
          <mxGeometry x="1270" y="388" width="80" height="30" as="geometry" />
        </mxCell>
        <mxCell id="IHtmsZr_s-w7X0BS1OfV-42" value="" style="ellipse;whiteSpace=wrap;html=1;fillColor=#fa6800;fontColor=#000000;strokeColor=#C73500;" parent="1" vertex="1">
          <mxGeometry x="1180" y="800" width="80" height="80" as="geometry" />
        </mxCell>
      </root>
    </mxGraphModel>
  </diagram>
  <diagram id="lBf_OcPdTJTQ51VPXn7i" name="Página-5">
    <mxGraphModel dx="974" dy="410" grid="1" gridSize="10" guides="1" tooltips="1" connect="1" arrows="1" fold="1" page="1" pageScale="1" pageWidth="827" pageHeight="1169" math="0" shadow="0">
      <root>
        <mxCell id="0" />
        <mxCell id="1" parent="0" />
        <mxCell id="RnrBrT2a1BA5hPHtNFuJ-3" value="" style="edgeStyle=orthogonalEdgeStyle;rounded=0;orthogonalLoop=1;jettySize=auto;html=1;" parent="1" source="RnrBrT2a1BA5hPHtNFuJ-1" target="RnrBrT2a1BA5hPHtNFuJ-2" edge="1">
          <mxGeometry relative="1" as="geometry" />
        </mxCell>
        <mxCell id="RnrBrT2a1BA5hPHtNFuJ-1" value="" style="ellipse;whiteSpace=wrap;html=1;fillColor=#60a917;fontColor=#ffffff;strokeColor=#2D7600;" parent="1" vertex="1">
          <mxGeometry x="373" y="327" width="80" height="80" as="geometry" />
        </mxCell>
        <mxCell id="RnrBrT2a1BA5hPHtNFuJ-5" value="" style="edgeStyle=orthogonalEdgeStyle;rounded=0;orthogonalLoop=1;jettySize=auto;html=1;" parent="1" source="RnrBrT2a1BA5hPHtNFuJ-2" target="RnrBrT2a1BA5hPHtNFuJ-4" edge="1">
          <mxGeometry relative="1" as="geometry" />
        </mxCell>
        <mxCell id="RnrBrT2a1BA5hPHtNFuJ-2" value="Leia &quot;Horas de sono por noite&quot;(HS)" style="whiteSpace=wrap;html=1;" parent="1" vertex="1">
          <mxGeometry x="353" y="457" width="120" height="60" as="geometry" />
        </mxCell>
        <mxCell id="RnrBrT2a1BA5hPHtNFuJ-7" value="" style="edgeStyle=orthogonalEdgeStyle;rounded=0;orthogonalLoop=1;jettySize=auto;html=1;" parent="1" source="RnrBrT2a1BA5hPHtNFuJ-4" target="RnrBrT2a1BA5hPHtNFuJ-6" edge="1">
          <mxGeometry relative="1" as="geometry">
            <Array as="points">
              <mxPoint x="473" y="587" />
              <mxPoint x="473" y="587" />
            </Array>
          </mxGeometry>
        </mxCell>
        <mxCell id="RnrBrT2a1BA5hPHtNFuJ-10" style="edgeStyle=orthogonalEdgeStyle;rounded=0;orthogonalLoop=1;jettySize=auto;html=1;exitX=1;exitY=1;exitDx=0;exitDy=0;entryX=0.5;entryY=0;entryDx=0;entryDy=0;" parent="1" source="RnrBrT2a1BA5hPHtNFuJ-4" target="RnrBrT2a1BA5hPHtNFuJ-9" edge="1">
          <mxGeometry relative="1" as="geometry" />
        </mxCell>
        <mxCell id="RnrBrT2a1BA5hPHtNFuJ-12" value="" style="edgeStyle=orthogonalEdgeStyle;rounded=0;orthogonalLoop=1;jettySize=auto;html=1;" parent="1" source="RnrBrT2a1BA5hPHtNFuJ-4" target="RnrBrT2a1BA5hPHtNFuJ-11" edge="1">
          <mxGeometry relative="1" as="geometry">
            <Array as="points">
              <mxPoint x="234" y="587" />
            </Array>
          </mxGeometry>
        </mxCell>
        <mxCell id="RnrBrT2a1BA5hPHtNFuJ-14" value="" style="edgeStyle=orthogonalEdgeStyle;rounded=0;orthogonalLoop=1;jettySize=auto;html=1;" parent="1" source="RnrBrT2a1BA5hPHtNFuJ-4" target="RnrBrT2a1BA5hPHtNFuJ-13" edge="1">
          <mxGeometry relative="1" as="geometry">
            <Array as="points">
              <mxPoint x="234" y="627" />
            </Array>
          </mxGeometry>
        </mxCell>
        <mxCell id="RnrBrT2a1BA5hPHtNFuJ-4" value="" style="rhombus;whiteSpace=wrap;html=1;" parent="1" vertex="1">
          <mxGeometry x="373" y="567" width="80" height="80" as="geometry" />
        </mxCell>
        <mxCell id="RnrBrT2a1BA5hPHtNFuJ-17" style="edgeStyle=orthogonalEdgeStyle;rounded=0;orthogonalLoop=1;jettySize=auto;html=1;exitX=1;exitY=0.5;exitDx=0;exitDy=0;entryX=1;entryY=0.5;entryDx=0;entryDy=0;" parent="1" source="RnrBrT2a1BA5hPHtNFuJ-6" target="RnrBrT2a1BA5hPHtNFuJ-15" edge="1">
          <mxGeometry relative="1" as="geometry" />
        </mxCell>
        <mxCell id="RnrBrT2a1BA5hPHtNFuJ-6" value="exiba &quot;Pouca concentração&quot;" style="whiteSpace=wrap;html=1;" parent="1" vertex="1">
          <mxGeometry x="533" y="487" width="120" height="60" as="geometry" />
        </mxCell>
        <mxCell id="RnrBrT2a1BA5hPHtNFuJ-18" style="edgeStyle=orthogonalEdgeStyle;rounded=0;orthogonalLoop=1;jettySize=auto;html=1;exitX=0.5;exitY=1;exitDx=0;exitDy=0;" parent="1" source="RnrBrT2a1BA5hPHtNFuJ-9" edge="1">
          <mxGeometry relative="1" as="geometry">
            <mxPoint x="593.2352941176471" y="802" as="targetPoint" />
          </mxGeometry>
        </mxCell>
        <mxCell id="RnrBrT2a1BA5hPHtNFuJ-9" value="exiba &quot;Olha a preguiça!&quot;" style="whiteSpace=wrap;html=1;" parent="1" vertex="1">
          <mxGeometry x="533" y="667" width="120" height="60" as="geometry" />
        </mxCell>
        <mxCell id="RnrBrT2a1BA5hPHtNFuJ-16" style="edgeStyle=orthogonalEdgeStyle;rounded=0;orthogonalLoop=1;jettySize=auto;html=1;exitX=0;exitY=0.5;exitDx=0;exitDy=0;entryX=0;entryY=0.5;entryDx=0;entryDy=0;" parent="1" source="RnrBrT2a1BA5hPHtNFuJ-11" target="RnrBrT2a1BA5hPHtNFuJ-15" edge="1">
          <mxGeometry relative="1" as="geometry" />
        </mxCell>
        <mxCell id="RnrBrT2a1BA5hPHtNFuJ-11" value="exiba &quot;#zumbi&quot;" style="whiteSpace=wrap;html=1;" parent="1" vertex="1">
          <mxGeometry x="174" y="487" width="120" height="60" as="geometry" />
        </mxCell>
        <mxCell id="RnrBrT2a1BA5hPHtNFuJ-19" style="edgeStyle=orthogonalEdgeStyle;rounded=0;orthogonalLoop=1;jettySize=auto;html=1;exitX=0.5;exitY=1;exitDx=0;exitDy=0;" parent="1" source="RnrBrT2a1BA5hPHtNFuJ-13" edge="1">
          <mxGeometry relative="1" as="geometry">
            <mxPoint x="234.41176470588243" y="802" as="targetPoint" />
          </mxGeometry>
        </mxCell>
        <mxCell id="RnrBrT2a1BA5hPHtNFuJ-13" value="exiba &quot;Boa concentração&quot;" style="whiteSpace=wrap;html=1;" parent="1" vertex="1">
          <mxGeometry x="174" y="667" width="120" height="60" as="geometry" />
        </mxCell>
        <mxCell id="RnrBrT2a1BA5hPHtNFuJ-15" value="" style="ellipse;whiteSpace=wrap;html=1;fillColor=#fa6800;fontColor=#000000;strokeColor=#C73500;" parent="1" vertex="1">
          <mxGeometry x="374" y="762" width="80" height="80" as="geometry" />
        </mxCell>
        <mxCell id="RnrBrT2a1BA5hPHtNFuJ-20" value="HS =&amp;gt; 0 &amp;amp;&amp;amp; &amp;lt; 5" style="text;html=1;align=center;verticalAlign=middle;resizable=0;points=[];autosize=1;strokeColor=none;fillColor=none;" parent="1" vertex="1">
          <mxGeometry x="250" y="550" width="110" height="30" as="geometry" />
        </mxCell>
        <mxCell id="RnrBrT2a1BA5hPHtNFuJ-21" value="HS &amp;gt; 4 &amp;amp;&amp;amp; &amp;lt; 7" style="text;html=1;align=center;verticalAlign=middle;resizable=0;points=[];autosize=1;strokeColor=none;fillColor=none;" parent="1" vertex="1">
          <mxGeometry x="468" y="550" width="100" height="30" as="geometry" />
        </mxCell>
        <mxCell id="RnrBrT2a1BA5hPHtNFuJ-22" value="HS &amp;gt; 6 &amp;amp;&amp;amp; &amp;lt; 10" style="text;html=1;align=center;verticalAlign=middle;resizable=0;points=[];autosize=1;strokeColor=none;fillColor=none;" parent="1" vertex="1">
          <mxGeometry x="245" y="592" width="110" height="30" as="geometry" />
        </mxCell>
        <mxCell id="RnrBrT2a1BA5hPHtNFuJ-23" value="HS &amp;gt; 9" style="text;html=1;align=center;verticalAlign=middle;resizable=0;points=[];autosize=1;strokeColor=none;fillColor=none;" parent="1" vertex="1">
          <mxGeometry x="468" y="592" width="60" height="30" as="geometry" />
        </mxCell>
      </root>
    </mxGraphModel>
  </diagram>
  <diagram id="_7LXTeUiOSNA0T8WNuy4" name="Página-6">
    <mxGraphModel dx="880" dy="470" grid="1" gridSize="10" guides="1" tooltips="1" connect="1" arrows="1" fold="1" page="1" pageScale="1" pageWidth="827" pageHeight="1169" math="0" shadow="0">
      <root>
        <mxCell id="0" />
        <mxCell id="1" parent="0" />
        <mxCell id="7xmiqeurf4_3E7NtRWvT-3" value="" style="edgeStyle=orthogonalEdgeStyle;rounded=0;orthogonalLoop=1;jettySize=auto;html=1;" parent="1" source="7xmiqeurf4_3E7NtRWvT-1" target="7xmiqeurf4_3E7NtRWvT-2" edge="1">
          <mxGeometry relative="1" as="geometry" />
        </mxCell>
        <mxCell id="7xmiqeurf4_3E7NtRWvT-1" value="" style="ellipse;whiteSpace=wrap;html=1;aspect=fixed;fillColor=#60a917;fontColor=#ffffff;strokeColor=#2D7600;" parent="1" vertex="1">
          <mxGeometry x="110" y="335" width="80" height="80" as="geometry" />
        </mxCell>
        <mxCell id="7xmiqeurf4_3E7NtRWvT-7" value="" style="edgeStyle=orthogonalEdgeStyle;rounded=0;orthogonalLoop=1;jettySize=auto;html=1;" parent="1" source="7xmiqeurf4_3E7NtRWvT-2" target="7xmiqeurf4_3E7NtRWvT-6" edge="1">
          <mxGeometry relative="1" as="geometry" />
        </mxCell>
        <mxCell id="7xmiqeurf4_3E7NtRWvT-2" value="Leia frente do terreno" style="whiteSpace=wrap;html=1;" parent="1" vertex="1">
          <mxGeometry x="90" y="455" width="120" height="60" as="geometry" />
        </mxCell>
        <mxCell id="7xmiqeurf4_3E7NtRWvT-9" value="" style="edgeStyle=orthogonalEdgeStyle;rounded=0;orthogonalLoop=1;jettySize=auto;html=1;" parent="1" source="7xmiqeurf4_3E7NtRWvT-6" target="7xmiqeurf4_3E7NtRWvT-8" edge="1">
          <mxGeometry relative="1" as="geometry" />
        </mxCell>
        <mxCell id="7xmiqeurf4_3E7NtRWvT-6" value="Leia lateral do terreno" style="whiteSpace=wrap;html=1;" parent="1" vertex="1">
          <mxGeometry x="90" y="555" width="120" height="60" as="geometry" />
        </mxCell>
        <mxCell id="7xmiqeurf4_3E7NtRWvT-11" value="" style="edgeStyle=orthogonalEdgeStyle;rounded=0;orthogonalLoop=1;jettySize=auto;html=1;" parent="1" source="7xmiqeurf4_3E7NtRWvT-8" target="7xmiqeurf4_3E7NtRWvT-10" edge="1">
          <mxGeometry relative="1" as="geometry" />
        </mxCell>
        <mxCell id="7xmiqeurf4_3E7NtRWvT-8" value="Multiplique as dimensões do terreno" style="whiteSpace=wrap;html=1;" parent="1" vertex="1">
          <mxGeometry x="90" y="655" width="120" height="60" as="geometry" />
        </mxCell>
        <mxCell id="7xmiqeurf4_3E7NtRWvT-15" value="" style="edgeStyle=orthogonalEdgeStyle;rounded=0;orthogonalLoop=1;jettySize=auto;html=1;" parent="1" source="7xmiqeurf4_3E7NtRWvT-10" target="7xmiqeurf4_3E7NtRWvT-14" edge="1">
          <mxGeometry relative="1" as="geometry">
            <Array as="points">
              <mxPoint x="370" y="775" />
            </Array>
          </mxGeometry>
        </mxCell>
        <mxCell id="7xmiqeurf4_3E7NtRWvT-17" value="" style="edgeStyle=orthogonalEdgeStyle;rounded=0;orthogonalLoop=1;jettySize=auto;html=1;entryX=0.5;entryY=1;entryDx=0;entryDy=0;" parent="1" source="7xmiqeurf4_3E7NtRWvT-10" target="7xmiqeurf4_3E7NtRWvT-23" edge="1">
          <mxGeometry relative="1" as="geometry">
            <mxPoint x="510" y="714.9999999999999" as="targetPoint" />
          </mxGeometry>
        </mxCell>
        <mxCell id="7xmiqeurf4_3E7NtRWvT-19" value="" style="edgeStyle=orthogonalEdgeStyle;rounded=0;orthogonalLoop=1;jettySize=auto;html=1;entryX=0.5;entryY=1;entryDx=0;entryDy=0;" parent="1" source="7xmiqeurf4_3E7NtRWvT-10" target="7xmiqeurf4_3E7NtRWvT-24" edge="1">
          <mxGeometry relative="1" as="geometry">
            <mxPoint x="740" y="755" as="targetPoint" />
            <Array as="points">
              <mxPoint x="651" y="815" />
            </Array>
          </mxGeometry>
        </mxCell>
        <mxCell id="7xmiqeurf4_3E7NtRWvT-10" value="" style="rhombus;whiteSpace=wrap;html=1;" parent="1" vertex="1">
          <mxGeometry x="110" y="755" width="80" height="80" as="geometry" />
        </mxCell>
        <mxCell id="7xmiqeurf4_3E7NtRWvT-26" style="edgeStyle=orthogonalEdgeStyle;rounded=0;orthogonalLoop=1;jettySize=auto;html=1;exitX=0.5;exitY=0;exitDx=0;exitDy=0;entryX=0.5;entryY=1;entryDx=0;entryDy=0;" parent="1" source="7xmiqeurf4_3E7NtRWvT-14" target="7xmiqeurf4_3E7NtRWvT-25" edge="1">
          <mxGeometry relative="1" as="geometry" />
        </mxCell>
        <mxCell id="7xmiqeurf4_3E7NtRWvT-14" value="exiba&amp;nbsp;“#terrenopequeno”&amp;nbsp;" style="whiteSpace=wrap;html=1;" parent="1" vertex="1">
          <mxGeometry x="280" y="655" width="170" height="60" as="geometry" />
        </mxCell>
        <mxCell id="7xmiqeurf4_3E7NtRWvT-20" value="Caso resultado seja &amp;lt; 100" style="text;html=1;align=center;verticalAlign=middle;resizable=0;points=[];autosize=1;strokeColor=none;fillColor=none;" parent="1" vertex="1">
          <mxGeometry x="210" y="745" width="160" height="30" as="geometry" />
        </mxCell>
        <mxCell id="7xmiqeurf4_3E7NtRWvT-21" value="Caso resultado&lt;br&gt;&amp;nbsp;seja &amp;gt; 99 &amp;amp; &amp;lt; 251" style="text;html=1;align=center;verticalAlign=middle;resizable=0;points=[];autosize=1;strokeColor=none;fillColor=none;" parent="1" vertex="1">
          <mxGeometry x="390" y="755" width="120" height="40" as="geometry" />
        </mxCell>
        <mxCell id="7xmiqeurf4_3E7NtRWvT-22" value="Caso resultado&lt;br&gt;&amp;nbsp;seja &amp;nbsp;&amp;gt; 250" style="text;html=1;align=center;verticalAlign=middle;resizable=0;points=[];autosize=1;strokeColor=none;fillColor=none;" parent="1" vertex="1">
          <mxGeometry x="546" y="775" width="100" height="40" as="geometry" />
        </mxCell>
        <mxCell id="7xmiqeurf4_3E7NtRWvT-28" style="edgeStyle=orthogonalEdgeStyle;rounded=0;orthogonalLoop=1;jettySize=auto;html=1;exitX=0.5;exitY=0;exitDx=0;exitDy=0;entryX=0.5;entryY=1;entryDx=0;entryDy=0;" parent="1" source="7xmiqeurf4_3E7NtRWvT-23" target="7xmiqeurf4_3E7NtRWvT-25" edge="1">
          <mxGeometry relative="1" as="geometry" />
        </mxCell>
        <mxCell id="7xmiqeurf4_3E7NtRWvT-23" value="exiba&amp;nbsp;“#terrenopequeno”&amp;nbsp;" style="whiteSpace=wrap;html=1;" parent="1" vertex="1">
          <mxGeometry x="426" y="555" width="170" height="60" as="geometry" />
        </mxCell>
        <mxCell id="7xmiqeurf4_3E7NtRWvT-27" style="edgeStyle=orthogonalEdgeStyle;rounded=0;orthogonalLoop=1;jettySize=auto;html=1;exitX=0.5;exitY=0;exitDx=0;exitDy=0;entryX=0.5;entryY=1;entryDx=0;entryDy=0;" parent="1" source="7xmiqeurf4_3E7NtRWvT-24" target="7xmiqeurf4_3E7NtRWvT-25" edge="1">
          <mxGeometry relative="1" as="geometry" />
        </mxCell>
        <mxCell id="7xmiqeurf4_3E7NtRWvT-24" value="exiba&amp;nbsp;“#terrenopequeno”&amp;nbsp;" style="whiteSpace=wrap;html=1;" parent="1" vertex="1">
          <mxGeometry x="566" y="655" width="170" height="60" as="geometry" />
        </mxCell>
        <mxCell id="7xmiqeurf4_3E7NtRWvT-25" value="" style="ellipse;whiteSpace=wrap;html=1;fillColor=#fa6800;fontColor=#000000;strokeColor=#C73500;" parent="1" vertex="1">
          <mxGeometry x="471" y="335" width="80" height="80" as="geometry" />
        </mxCell>
      </root>
    </mxGraphModel>
  </diagram>
  <diagram id="MuFGnWXYVLoxoDvh5pTs" name="Página-7">
    <mxGraphModel dx="880" dy="470" grid="1" gridSize="10" guides="1" tooltips="1" connect="1" arrows="1" fold="1" page="1" pageScale="1" pageWidth="827" pageHeight="1169" math="0" shadow="0">
      <root>
        <mxCell id="0" />
        <mxCell id="1" parent="0" />
        <mxCell id="L-7Gr_Drru7s15ms1G7M-3" value="" style="edgeStyle=orthogonalEdgeStyle;rounded=0;orthogonalLoop=1;jettySize=auto;html=1;" parent="1" source="L-7Gr_Drru7s15ms1G7M-1" edge="1">
          <mxGeometry relative="1" as="geometry">
            <mxPoint x="200" y="395" as="targetPoint" />
          </mxGeometry>
        </mxCell>
        <mxCell id="L-7Gr_Drru7s15ms1G7M-1" value="" style="ellipse;whiteSpace=wrap;html=1;fillColor=#008a00;fontColor=#ffffff;strokeColor=#005700;" parent="1" vertex="1">
          <mxGeometry x="60" y="355" width="80" height="80" as="geometry" />
        </mxCell>
        <mxCell id="L-7Gr_Drru7s15ms1G7M-6" value="" style="edgeStyle=orthogonalEdgeStyle;rounded=0;orthogonalLoop=1;jettySize=auto;html=1;" parent="1" source="L-7Gr_Drru7s15ms1G7M-4" target="L-7Gr_Drru7s15ms1G7M-5" edge="1">
          <mxGeometry relative="1" as="geometry" />
        </mxCell>
        <mxCell id="L-7Gr_Drru7s15ms1G7M-4" value="Ler salário do estágio $&lt;b&gt;SE&lt;/b&gt;" style="whiteSpace=wrap;html=1;" parent="1" vertex="1">
          <mxGeometry x="200" y="365" width="120" height="60" as="geometry" />
        </mxCell>
        <mxCell id="L-7Gr_Drru7s15ms1G7M-9" value="" style="edgeStyle=orthogonalEdgeStyle;rounded=0;orthogonalLoop=1;jettySize=auto;html=1;" parent="1" source="L-7Gr_Drru7s15ms1G7M-5" target="L-7Gr_Drru7s15ms1G7M-8" edge="1">
          <mxGeometry relative="1" as="geometry" />
        </mxCell>
        <mxCell id="L-7Gr_Drru7s15ms1G7M-5" value="Ler Valor da faculdade $&lt;b&gt;VF&lt;/b&gt;" style="whiteSpace=wrap;html=1;" parent="1" vertex="1">
          <mxGeometry x="400" y="365" width="120" height="60" as="geometry" />
        </mxCell>
        <mxCell id="L-7Gr_Drru7s15ms1G7M-12" value="" style="edgeStyle=orthogonalEdgeStyle;rounded=0;orthogonalLoop=1;jettySize=auto;html=1;" parent="1" source="L-7Gr_Drru7s15ms1G7M-8" target="L-7Gr_Drru7s15ms1G7M-11" edge="1">
          <mxGeometry relative="1" as="geometry">
            <Array as="points">
              <mxPoint x="660" y="445" />
              <mxPoint x="413" y="445" />
            </Array>
          </mxGeometry>
        </mxCell>
        <mxCell id="L-7Gr_Drru7s15ms1G7M-8" value="($SE - $VF) / 30 = $&lt;b&gt;MEDIA&lt;/b&gt;" style="whiteSpace=wrap;html=1;" parent="1" vertex="1">
          <mxGeometry x="600" y="365" width="120" height="60" as="geometry" />
        </mxCell>
        <mxCell id="L-7Gr_Drru7s15ms1G7M-14" value="" style="edgeStyle=orthogonalEdgeStyle;rounded=0;orthogonalLoop=1;jettySize=auto;html=1;" parent="1" source="L-7Gr_Drru7s15ms1G7M-11" target="L-7Gr_Drru7s15ms1G7M-13" edge="1">
          <mxGeometry relative="1" as="geometry">
            <Array as="points">
              <mxPoint x="99" y="485" />
            </Array>
          </mxGeometry>
        </mxCell>
        <mxCell id="L-7Gr_Drru7s15ms1G7M-25" value="$MEDIA &amp;lt; 15" style="edgeLabel;html=1;align=center;verticalAlign=middle;resizable=0;points=[];" parent="L-7Gr_Drru7s15ms1G7M-14" vertex="1" connectable="0">
          <mxGeometry x="-0.343" y="2" relative="1" as="geometry">
            <mxPoint as="offset" />
          </mxGeometry>
        </mxCell>
        <mxCell id="L-7Gr_Drru7s15ms1G7M-18" value="" style="edgeStyle=orthogonalEdgeStyle;rounded=0;orthogonalLoop=1;jettySize=auto;html=1;" parent="1" source="L-7Gr_Drru7s15ms1G7M-11" target="L-7Gr_Drru7s15ms1G7M-17" edge="1">
          <mxGeometry relative="1" as="geometry">
            <Array as="points">
              <mxPoint x="259" y="525" />
            </Array>
          </mxGeometry>
        </mxCell>
        <mxCell id="L-7Gr_Drru7s15ms1G7M-26" value="$MEDIA &amp;gt; 14 &amp;amp;&amp;amp;&lt;br&gt;&amp;nbsp;$MEDIA &amp;lt; 21" style="edgeLabel;html=1;align=center;verticalAlign=middle;resizable=0;points=[];" parent="L-7Gr_Drru7s15ms1G7M-18" vertex="1" connectable="0">
          <mxGeometry x="-0.2243" y="1" relative="1" as="geometry">
            <mxPoint as="offset" />
          </mxGeometry>
        </mxCell>
        <mxCell id="L-7Gr_Drru7s15ms1G7M-20" value="" style="edgeStyle=orthogonalEdgeStyle;rounded=0;orthogonalLoop=1;jettySize=auto;html=1;" parent="1" source="L-7Gr_Drru7s15ms1G7M-11" target="L-7Gr_Drru7s15ms1G7M-19" edge="1">
          <mxGeometry relative="1" as="geometry">
            <Array as="points">
              <mxPoint x="719" y="485" />
            </Array>
          </mxGeometry>
        </mxCell>
        <mxCell id="L-7Gr_Drru7s15ms1G7M-34" value="$MEDIA &amp;gt; 30" style="edgeLabel;html=1;align=center;verticalAlign=middle;resizable=0;points=[];" parent="L-7Gr_Drru7s15ms1G7M-20" vertex="1" connectable="0">
          <mxGeometry x="-0.3054" y="-1" relative="1" as="geometry">
            <mxPoint as="offset" />
          </mxGeometry>
        </mxCell>
        <mxCell id="L-7Gr_Drru7s15ms1G7M-22" value="" style="edgeStyle=orthogonalEdgeStyle;rounded=0;orthogonalLoop=1;jettySize=auto;html=1;" parent="1" source="L-7Gr_Drru7s15ms1G7M-11" target="L-7Gr_Drru7s15ms1G7M-21" edge="1">
          <mxGeometry relative="1" as="geometry">
            <Array as="points">
              <mxPoint x="569" y="525" />
            </Array>
          </mxGeometry>
        </mxCell>
        <mxCell id="L-7Gr_Drru7s15ms1G7M-31" value="$MEDIA &amp;gt; 24 &amp;amp;&amp;amp;&lt;br&gt;$MEDIA &amp;lt; 31" style="edgeLabel;html=1;align=center;verticalAlign=middle;resizable=0;points=[];" parent="L-7Gr_Drru7s15ms1G7M-22" vertex="1" connectable="0">
          <mxGeometry x="-0.4722" relative="1" as="geometry">
            <mxPoint as="offset" />
          </mxGeometry>
        </mxCell>
        <mxCell id="L-7Gr_Drru7s15ms1G7M-28" style="edgeStyle=orthogonalEdgeStyle;rounded=0;orthogonalLoop=1;jettySize=auto;html=1;exitX=0.5;exitY=1;exitDx=0;exitDy=0;entryX=0.5;entryY=0;entryDx=0;entryDy=0;" parent="1" source="L-7Gr_Drru7s15ms1G7M-11" target="L-7Gr_Drru7s15ms1G7M-23" edge="1">
          <mxGeometry relative="1" as="geometry" />
        </mxCell>
        <mxCell id="L-7Gr_Drru7s15ms1G7M-29" value="$MEDIA &amp;gt; 20 &amp;amp;&amp;amp; &lt;br&gt;$MEDIA&amp;nbsp; &amp;lt; 25" style="edgeLabel;html=1;align=center;verticalAlign=middle;resizable=0;points=[];" parent="L-7Gr_Drru7s15ms1G7M-28" vertex="1" connectable="0">
          <mxGeometry x="-0.0333" relative="1" as="geometry">
            <mxPoint as="offset" />
          </mxGeometry>
        </mxCell>
        <mxCell id="L-7Gr_Drru7s15ms1G7M-11" value="" style="rhombus;whiteSpace=wrap;html=1;" parent="1" vertex="1">
          <mxGeometry x="373" y="465" width="80" height="80" as="geometry" />
        </mxCell>
        <mxCell id="L-7Gr_Drru7s15ms1G7M-36" style="edgeStyle=orthogonalEdgeStyle;rounded=0;orthogonalLoop=1;jettySize=auto;html=1;exitX=0.5;exitY=1;exitDx=0;exitDy=0;entryX=0.5;entryY=0;entryDx=0;entryDy=0;" parent="1" source="L-7Gr_Drru7s15ms1G7M-13" target="L-7Gr_Drru7s15ms1G7M-35" edge="1">
          <mxGeometry relative="1" as="geometry" />
        </mxCell>
        <mxCell id="L-7Gr_Drru7s15ms1G7M-13" value="exibir “#controletotal”" style="whiteSpace=wrap;html=1;" parent="1" vertex="1">
          <mxGeometry x="39" y="605" width="120" height="60" as="geometry" />
        </mxCell>
        <mxCell id="L-7Gr_Drru7s15ms1G7M-42" style="edgeStyle=orthogonalEdgeStyle;rounded=0;orthogonalLoop=1;jettySize=auto;html=1;exitX=0.5;exitY=1;exitDx=0;exitDy=0;entryX=0.5;entryY=0;entryDx=0;entryDy=0;" parent="1" source="L-7Gr_Drru7s15ms1G7M-17" target="L-7Gr_Drru7s15ms1G7M-35" edge="1">
          <mxGeometry relative="1" as="geometry" />
        </mxCell>
        <mxCell id="L-7Gr_Drru7s15ms1G7M-17" value="exibir “#ragazzonosabado”&lt;span style=&quot;box-sizing: border-box; font-family: &amp;quot;Exo 2&amp;quot;, Barlow; color: rgb(3, 27, 78); font-size: 14px; text-align: left; background-color: rgb(255, 255, 255);&quot; data-ccp-props=&quot;{&amp;quot;201341983&amp;quot;:0,&amp;quot;335559739&amp;quot;:120,&amp;quot;335559740&amp;quot;:276}&quot;&gt;&amp;nbsp;&lt;/span&gt;" style="whiteSpace=wrap;html=1;" parent="1" vertex="1">
          <mxGeometry x="199" y="605" width="120" height="60" as="geometry" />
        </mxCell>
        <mxCell id="L-7Gr_Drru7s15ms1G7M-39" style="edgeStyle=orthogonalEdgeStyle;rounded=0;orthogonalLoop=1;jettySize=auto;html=1;exitX=0.5;exitY=1;exitDx=0;exitDy=0;entryX=0.5;entryY=0;entryDx=0;entryDy=0;" parent="1" source="L-7Gr_Drru7s15ms1G7M-19" target="L-7Gr_Drru7s15ms1G7M-35" edge="1">
          <mxGeometry relative="1" as="geometry" />
        </mxCell>
        <mxCell id="L-7Gr_Drru7s15ms1G7M-19" value="&amp;nbsp;exibir “#tobonito”&lt;span style=&quot;box-sizing: border-box; font-family: &amp;quot;Exo 2&amp;quot;, Barlow; color: rgb(3, 27, 78); font-size: 14px; text-align: left; background-color: rgb(255, 255, 255);&quot; data-ccp-props=&quot;{&amp;quot;201341983&amp;quot;:0,&amp;quot;335559739&amp;quot;:120,&amp;quot;335559740&amp;quot;:276}&quot;&gt;&amp;nbsp;&lt;/span&gt;" style="whiteSpace=wrap;html=1;" parent="1" vertex="1">
          <mxGeometry x="669" y="605" width="120" height="60" as="geometry" />
        </mxCell>
        <mxCell id="L-7Gr_Drru7s15ms1G7M-38" style="edgeStyle=orthogonalEdgeStyle;rounded=0;orthogonalLoop=1;jettySize=auto;html=1;exitX=0.5;exitY=1;exitDx=0;exitDy=0;entryX=0.5;entryY=0;entryDx=0;entryDy=0;" parent="1" source="L-7Gr_Drru7s15ms1G7M-21" target="L-7Gr_Drru7s15ms1G7M-35" edge="1">
          <mxGeometry relative="1" as="geometry" />
        </mxCell>
        <mxCell id="L-7Gr_Drru7s15ms1G7M-21" value="exibir “#novogame”" style="whiteSpace=wrap;html=1;" parent="1" vertex="1">
          <mxGeometry x="509" y="605" width="120" height="60" as="geometry" />
        </mxCell>
        <mxCell id="L-7Gr_Drru7s15ms1G7M-40" style="edgeStyle=orthogonalEdgeStyle;rounded=0;orthogonalLoop=1;jettySize=auto;html=1;exitX=0.5;exitY=1;exitDx=0;exitDy=0;entryX=0.5;entryY=0;entryDx=0;entryDy=0;" parent="1" source="L-7Gr_Drru7s15ms1G7M-23" target="L-7Gr_Drru7s15ms1G7M-35" edge="1">
          <mxGeometry relative="1" as="geometry">
            <mxPoint x="413" y="715" as="targetPoint" />
            <Array as="points">
              <mxPoint x="413" y="735" />
              <mxPoint x="413" y="735" />
            </Array>
          </mxGeometry>
        </mxCell>
        <mxCell id="L-7Gr_Drru7s15ms1G7M-23" value="exibir “#cinemanamorada”" style="whiteSpace=wrap;html=1;" parent="1" vertex="1">
          <mxGeometry x="353" y="605" width="120" height="60" as="geometry" />
        </mxCell>
        <mxCell id="L-7Gr_Drru7s15ms1G7M-35" value="" style="ellipse;whiteSpace=wrap;html=1;fillColor=#fa6800;fontColor=#000000;strokeColor=#C73500;" parent="1" vertex="1">
          <mxGeometry x="373" y="735" width="80" height="80" as="geometry" />
        </mxCell>
      </root>
    </mxGraphModel>
  </diagram>
  <diagram id="wjAvYoSqfs2RhTEjZv4y" name="Página-8">
    <mxGraphModel dx="880" dy="470" grid="1" gridSize="10" guides="1" tooltips="1" connect="1" arrows="1" fold="1" page="1" pageScale="1" pageWidth="827" pageHeight="1169" math="0" shadow="0">
      <root>
        <mxCell id="0" />
        <mxCell id="1" parent="0" />
        <mxCell id="Iso_7e7kN7sDZhAEwS7m-1" style="edgeStyle=orthogonalEdgeStyle;rounded=0;orthogonalLoop=1;jettySize=auto;html=1;exitX=1;exitY=0.5;exitDx=0;exitDy=0;entryX=0;entryY=0.5;entryDx=0;entryDy=0;" parent="1" source="xxNO3AcdDvmhIZNNwrgV-1" target="xxNO3AcdDvmhIZNNwrgV-4" edge="1">
          <mxGeometry relative="1" as="geometry" />
        </mxCell>
        <mxCell id="xxNO3AcdDvmhIZNNwrgV-1" value="" style="ellipse;whiteSpace=wrap;html=1;fillColor=#008a00;fontColor=#ffffff;strokeColor=#005700;" parent="1" vertex="1">
          <mxGeometry x="100" y="60" width="80" height="80" as="geometry" />
        </mxCell>
        <mxCell id="xxNO3AcdDvmhIZNNwrgV-7" value="" style="edgeStyle=orthogonalEdgeStyle;rounded=0;orthogonalLoop=1;jettySize=auto;html=1;exitX=0.5;exitY=1;exitDx=0;exitDy=0;" parent="1" source="xxNO3AcdDvmhIZNNwrgV-4" target="xxNO3AcdDvmhIZNNwrgV-6" edge="1">
          <mxGeometry relative="1" as="geometry">
            <Array as="points">
              <mxPoint x="394" y="150" />
              <mxPoint x="394" y="150" />
            </Array>
          </mxGeometry>
        </mxCell>
        <mxCell id="xxNO3AcdDvmhIZNNwrgV-4" value="$Nk recebe golpe" style="whiteSpace=wrap;html=1;" parent="1" vertex="1">
          <mxGeometry x="334" y="70" width="120" height="60" as="geometry" />
        </mxCell>
        <mxCell id="xxNO3AcdDvmhIZNNwrgV-9" value="" style="edgeStyle=orthogonalEdgeStyle;rounded=0;orthogonalLoop=1;jettySize=auto;html=1;entryX=0.5;entryY=0;entryDx=0;entryDy=0;" parent="1" source="xxNO3AcdDvmhIZNNwrgV-6" target="xxNO3AcdDvmhIZNNwrgV-15" edge="1">
          <mxGeometry relative="1" as="geometry">
            <mxPoint x="140" y="200" as="targetPoint" />
          </mxGeometry>
        </mxCell>
        <mxCell id="xxNO3AcdDvmhIZNNwrgV-12" value="$Nk perde parte do corpo" style="edgeLabel;html=1;align=center;verticalAlign=middle;resizable=0;points=[];" parent="xxNO3AcdDvmhIZNNwrgV-9" vertex="1" connectable="0">
          <mxGeometry x="-0.1528" y="-1" relative="1" as="geometry">
            <mxPoint as="offset" />
          </mxGeometry>
        </mxCell>
        <mxCell id="xxNO3AcdDvmhIZNNwrgV-11" value="" style="edgeStyle=orthogonalEdgeStyle;rounded=0;orthogonalLoop=1;jettySize=auto;html=1;entryX=1;entryY=0.75;entryDx=0;entryDy=0;exitX=1;exitY=0.5;exitDx=0;exitDy=0;" parent="1" source="xxNO3AcdDvmhIZNNwrgV-6" target="xxNO3AcdDvmhIZNNwrgV-4" edge="1">
          <mxGeometry relative="1" as="geometry">
            <mxPoint x="433.9999999999998" y="100" as="targetPoint" />
            <Array as="points">
              <mxPoint x="560" y="200" />
              <mxPoint x="560" y="115" />
            </Array>
            <mxPoint x="407.48948374760994" y="191.51051625239006" as="sourcePoint" />
          </mxGeometry>
        </mxCell>
        <mxCell id="xxNO3AcdDvmhIZNNwrgV-13" value="$Nk não perde&lt;br&gt;&amp;nbsp;parte do corpo" style="edgeLabel;html=1;align=center;verticalAlign=middle;resizable=0;points=[];" parent="xxNO3AcdDvmhIZNNwrgV-11" vertex="1" connectable="0">
          <mxGeometry x="-0.0055" y="1" relative="1" as="geometry">
            <mxPoint x="-81" y="31" as="offset" />
          </mxGeometry>
        </mxCell>
        <mxCell id="xxNO3AcdDvmhIZNNwrgV-6" value="" style="rhombus;whiteSpace=wrap;html=1;" parent="1" vertex="1">
          <mxGeometry x="354" y="160" width="80" height="80" as="geometry" />
        </mxCell>
        <mxCell id="xxNO3AcdDvmhIZNNwrgV-18" value="" style="edgeStyle=orthogonalEdgeStyle;rounded=0;orthogonalLoop=1;jettySize=auto;html=1;" parent="1" source="xxNO3AcdDvmhIZNNwrgV-15" target="xxNO3AcdDvmhIZNNwrgV-17" edge="1">
          <mxGeometry relative="1" as="geometry" />
        </mxCell>
        <mxCell id="xxNO3AcdDvmhIZNNwrgV-19" value="$Nk Pode se regenerar" style="edgeLabel;html=1;align=center;verticalAlign=middle;resizable=0;points=[];" parent="xxNO3AcdDvmhIZNNwrgV-18" vertex="1" connectable="0">
          <mxGeometry x="-0.1253" relative="1" as="geometry">
            <mxPoint as="offset" />
          </mxGeometry>
        </mxCell>
        <mxCell id="xxNO3AcdDvmhIZNNwrgV-22" value="" style="edgeStyle=orthogonalEdgeStyle;rounded=0;orthogonalLoop=1;jettySize=auto;html=1;exitX=0.5;exitY=1;exitDx=0;exitDy=0;entryX=0;entryY=0.5;entryDx=0;entryDy=0;" parent="1" source="xxNO3AcdDvmhIZNNwrgV-15" target="xxNO3AcdDvmhIZNNwrgV-21" edge="1">
          <mxGeometry relative="1" as="geometry">
            <mxPoint x="130.0011764705883" y="389.9988235294117" as="sourcePoint" />
            <mxPoint x="344.00117647058806" y="449.94" as="targetPoint" />
          </mxGeometry>
        </mxCell>
        <mxCell id="xxNO3AcdDvmhIZNNwrgV-23" value="$Nk Não pode se regenerar&amp;nbsp;" style="edgeLabel;html=1;align=center;verticalAlign=middle;resizable=0;points=[];" parent="xxNO3AcdDvmhIZNNwrgV-22" vertex="1" connectable="0">
          <mxGeometry x="-0.1438" y="1" relative="1" as="geometry">
            <mxPoint x="31" as="offset" />
          </mxGeometry>
        </mxCell>
        <mxCell id="xxNO3AcdDvmhIZNNwrgV-15" value="" style="rhombus;whiteSpace=wrap;html=1;" parent="1" vertex="1">
          <mxGeometry x="100" y="270" width="80" height="80" as="geometry" />
        </mxCell>
        <mxCell id="xxNO3AcdDvmhIZNNwrgV-27" style="edgeStyle=orthogonalEdgeStyle;rounded=0;orthogonalLoop=1;jettySize=auto;html=1;exitX=1;exitY=0.5;exitDx=0;exitDy=0;entryX=1;entryY=0.25;entryDx=0;entryDy=0;" parent="1" source="wdW8DuwU6y6VPHdWNOfU-3" target="xxNO3AcdDvmhIZNNwrgV-4" edge="1">
          <mxGeometry relative="1" as="geometry">
            <mxPoint x="510.9699999999998" y="350" as="sourcePoint" />
            <mxPoint x="656.97" y="100" as="targetPoint" />
            <Array as="points" />
          </mxGeometry>
        </mxCell>
        <mxCell id="wdW8DuwU6y6VPHdWNOfU-5" style="edgeStyle=orthogonalEdgeStyle;rounded=0;orthogonalLoop=1;jettySize=auto;html=1;exitX=1;exitY=0.5;exitDx=0;exitDy=0;entryX=0;entryY=0.5;entryDx=0;entryDy=0;" parent="1" source="xxNO3AcdDvmhIZNNwrgV-17" target="wdW8DuwU6y6VPHdWNOfU-3" edge="1">
          <mxGeometry relative="1" as="geometry" />
        </mxCell>
        <mxCell id="xxNO3AcdDvmhIZNNwrgV-17" value="$Nk regenera" style="whiteSpace=wrap;html=1;" parent="1" vertex="1">
          <mxGeometry x="334" y="280" width="120" height="60" as="geometry" />
        </mxCell>
        <mxCell id="xxNO3AcdDvmhIZNNwrgV-26" value="" style="edgeStyle=orthogonalEdgeStyle;rounded=0;orthogonalLoop=1;jettySize=auto;html=1;" parent="1" source="xxNO3AcdDvmhIZNNwrgV-21" target="xxNO3AcdDvmhIZNNwrgV-25" edge="1">
          <mxGeometry relative="1" as="geometry" />
        </mxCell>
        <mxCell id="xxNO3AcdDvmhIZNNwrgV-21" value="$Nk morre" style="whiteSpace=wrap;html=1;" parent="1" vertex="1">
          <mxGeometry x="334" y="370" width="120" height="60" as="geometry" />
        </mxCell>
        <mxCell id="xxNO3AcdDvmhIZNNwrgV-25" value="" style="ellipse;whiteSpace=wrap;html=1;fillColor=#fa6800;fontColor=#000000;strokeColor=#C73500;" parent="1" vertex="1">
          <mxGeometry x="550" y="360" width="80" height="80" as="geometry" />
        </mxCell>
        <mxCell id="x_eDlDPA52i6A5lZPLZJ-1" value="(Raça Namekusei)" style="text;html=1;align=center;verticalAlign=middle;resizable=0;points=[];autosize=1;strokeColor=none;fillColor=none;" parent="1" vertex="1">
          <mxGeometry x="314" y="48" width="120" height="30" as="geometry" />
        </mxCell>
        <mxCell id="x_eDlDPA52i6A5lZPLZJ-2" value="(ki &amp;lt;= 5%)" style="text;html=1;align=center;verticalAlign=middle;resizable=0;points=[];autosize=1;strokeColor=none;fillColor=none;" parent="1" vertex="1">
          <mxGeometry x="190" y="400" width="80" height="30" as="geometry" />
        </mxCell>
        <mxCell id="x_eDlDPA52i6A5lZPLZJ-3" value="(ki &amp;gt; 5%)" style="text;html=1;align=center;verticalAlign=middle;resizable=0;points=[];autosize=1;strokeColor=none;fillColor=none;" parent="1" vertex="1">
          <mxGeometry x="710" y="640" width="70" height="30" as="geometry" />
        </mxCell>
        <mxCell id="wdW8DuwU6y6VPHdWNOfU-3" value="$Nk perde 10% de ki" style="whiteSpace=wrap;html=1;" parent="1" vertex="1">
          <mxGeometry x="490" y="280" width="120" height="60" as="geometry" />
        </mxCell>
      </root>
    </mxGraphModel>
  </diagram>
  <diagram id="AbkZjQw7RHvsK8fjmUzs" name="Página-9">
    <mxGraphModel dx="1760" dy="876" grid="1" gridSize="10" guides="1" tooltips="1" connect="1" arrows="1" fold="1" page="1" pageScale="1" pageWidth="827" pageHeight="1169" math="0" shadow="0">
      <root>
        <mxCell id="0" />
        <mxCell id="1" parent="0" />
        <mxCell id="rRPSB2-Us4d2gIfYwCOe-3" style="edgeStyle=orthogonalEdgeStyle;rounded=0;orthogonalLoop=1;jettySize=auto;html=1;exitX=0.5;exitY=1;exitDx=0;exitDy=0;entryX=0.5;entryY=0;entryDx=0;entryDy=0;" parent="1" source="rRPSB2-Us4d2gIfYwCOe-1" target="rRPSB2-Us4d2gIfYwCOe-2" edge="1">
          <mxGeometry relative="1" as="geometry" />
        </mxCell>
        <mxCell id="rRPSB2-Us4d2gIfYwCOe-1" value="" style="ellipse;whiteSpace=wrap;html=1;fillColor=#008a00;fontColor=#ffffff;strokeColor=#005700;" parent="1" vertex="1">
          <mxGeometry x="434" y="157" width="80" height="80" as="geometry" />
        </mxCell>
        <mxCell id="JX9ZoOWEHtZjX-4A8KNV-5" value="" style="edgeStyle=orthogonalEdgeStyle;rounded=0;orthogonalLoop=1;jettySize=auto;html=1;" parent="1" source="rRPSB2-Us4d2gIfYwCOe-2" target="JX9ZoOWEHtZjX-4A8KNV-4" edge="1">
          <mxGeometry relative="1" as="geometry" />
        </mxCell>
        <mxCell id="rRPSB2-Us4d2gIfYwCOe-2" value="ler nota 1&amp;nbsp;&lt;br&gt;&lt;b&gt;$n1&lt;/b&gt;" style="whiteSpace=wrap;html=1;" parent="1" vertex="1">
          <mxGeometry x="414" y="267" width="120" height="60" as="geometry" />
        </mxCell>
        <mxCell id="JX9ZoOWEHtZjX-4A8KNV-12" value="" style="edgeStyle=orthogonalEdgeStyle;rounded=0;orthogonalLoop=1;jettySize=auto;html=1;" parent="1" source="JX9ZoOWEHtZjX-4A8KNV-1" target="JX9ZoOWEHtZjX-4A8KNV-11" edge="1">
          <mxGeometry relative="1" as="geometry" />
        </mxCell>
        <mxCell id="JX9ZoOWEHtZjX-4A8KNV-1" value="ler nota 2&amp;nbsp;&lt;br&gt;&lt;b&gt;$n2&lt;/b&gt;" style="whiteSpace=wrap;html=1;" parent="1" vertex="1">
          <mxGeometry x="834" y="267" width="120" height="60" as="geometry" />
        </mxCell>
        <mxCell id="JX9ZoOWEHtZjX-4A8KNV-6" style="edgeStyle=orthogonalEdgeStyle;rounded=0;orthogonalLoop=1;jettySize=auto;html=1;exitX=1;exitY=0.5;exitDx=0;exitDy=0;entryX=0;entryY=0.5;entryDx=0;entryDy=0;" parent="1" source="JX9ZoOWEHtZjX-4A8KNV-4" target="JX9ZoOWEHtZjX-4A8KNV-1" edge="1">
          <mxGeometry relative="1" as="geometry" />
        </mxCell>
        <mxCell id="JX9ZoOWEHtZjX-4A8KNV-10" value="$n1 &amp;gt; 0 &amp;amp;&amp;amp; $n1 &amp;lt; 11" style="edgeLabel;html=1;align=center;verticalAlign=middle;resizable=0;points=[];" parent="JX9ZoOWEHtZjX-4A8KNV-6" vertex="1" connectable="0">
          <mxGeometry x="-0.1407" relative="1" as="geometry">
            <mxPoint as="offset" />
          </mxGeometry>
        </mxCell>
        <mxCell id="JX9ZoOWEHtZjX-4A8KNV-7" style="edgeStyle=orthogonalEdgeStyle;rounded=0;orthogonalLoop=1;jettySize=auto;html=1;exitX=0.5;exitY=1;exitDx=0;exitDy=0;entryX=1;entryY=0.5;entryDx=0;entryDy=0;" parent="1" source="JX9ZoOWEHtZjX-4A8KNV-4" target="1klOGRE0AHraYYgsHShA-2" edge="1">
          <mxGeometry relative="1" as="geometry" />
        </mxCell>
        <mxCell id="JX9ZoOWEHtZjX-4A8KNV-9" value="$n1 &amp;lt; 0 &amp;amp;&amp;amp; $n1 &amp;gt; 10" style="edgeLabel;html=1;align=center;verticalAlign=middle;resizable=0;points=[];" parent="JX9ZoOWEHtZjX-4A8KNV-7" vertex="1" connectable="0">
          <mxGeometry x="-0.0065" y="2" relative="1" as="geometry">
            <mxPoint x="-22" y="-11" as="offset" />
          </mxGeometry>
        </mxCell>
        <mxCell id="JX9ZoOWEHtZjX-4A8KNV-4" value="" style="rhombus;whiteSpace=wrap;html=1;" parent="1" vertex="1">
          <mxGeometry x="604" y="257" width="80" height="80" as="geometry" />
        </mxCell>
        <mxCell id="JX9ZoOWEHtZjX-4A8KNV-13" style="edgeStyle=orthogonalEdgeStyle;rounded=0;orthogonalLoop=1;jettySize=auto;html=1;exitX=0.5;exitY=1;exitDx=0;exitDy=0;entryX=1;entryY=0.5;entryDx=0;entryDy=0;" parent="1" source="JX9ZoOWEHtZjX-4A8KNV-11" target="1klOGRE0AHraYYgsHShA-3" edge="1">
          <mxGeometry relative="1" as="geometry" />
        </mxCell>
        <mxCell id="JX9ZoOWEHtZjX-4A8KNV-14" value="$n2 &amp;lt;0 &amp;amp;&amp;amp; $n2 &amp;gt; 10" style="edgeLabel;html=1;align=center;verticalAlign=middle;resizable=0;points=[];" parent="JX9ZoOWEHtZjX-4A8KNV-13" vertex="1" connectable="0">
          <mxGeometry x="0.0121" y="-2" relative="1" as="geometry">
            <mxPoint x="-22" y="-7" as="offset" />
          </mxGeometry>
        </mxCell>
        <mxCell id="1klOGRE0AHraYYgsHShA-8" value="" style="edgeStyle=orthogonalEdgeStyle;rounded=0;orthogonalLoop=1;jettySize=auto;html=1;" parent="1" source="JX9ZoOWEHtZjX-4A8KNV-11" target="1klOGRE0AHraYYgsHShA-7" edge="1">
          <mxGeometry relative="1" as="geometry">
            <Array as="points">
              <mxPoint x="1224" y="297" />
              <mxPoint x="1224" y="457" />
              <mxPoint x="474" y="457" />
            </Array>
          </mxGeometry>
        </mxCell>
        <mxCell id="1klOGRE0AHraYYgsHShA-11" value="$n2 &amp;gt; 0 &amp;amp;&amp;amp; $n2 &amp;lt; 11" style="edgeLabel;html=1;align=center;verticalAlign=middle;resizable=0;points=[];" parent="1klOGRE0AHraYYgsHShA-8" vertex="1" connectable="0">
          <mxGeometry x="-0.8597" y="-1" relative="1" as="geometry">
            <mxPoint x="-16" y="-1" as="offset" />
          </mxGeometry>
        </mxCell>
        <mxCell id="JX9ZoOWEHtZjX-4A8KNV-11" value="" style="rhombus;whiteSpace=wrap;html=1;" parent="1" vertex="1">
          <mxGeometry x="1024" y="257" width="80" height="80" as="geometry" />
        </mxCell>
        <mxCell id="1klOGRE0AHraYYgsHShA-4" style="edgeStyle=orthogonalEdgeStyle;rounded=0;orthogonalLoop=1;jettySize=auto;html=1;exitX=0.5;exitY=0;exitDx=0;exitDy=0;entryX=0.5;entryY=1;entryDx=0;entryDy=0;" parent="1" source="1klOGRE0AHraYYgsHShA-2" target="rRPSB2-Us4d2gIfYwCOe-2" edge="1">
          <mxGeometry relative="1" as="geometry" />
        </mxCell>
        <mxCell id="1klOGRE0AHraYYgsHShA-2" value="Exiba &quot;Nota Inválida, ensira um valor entre 0 e 10&quot;" style="whiteSpace=wrap;html=1;" parent="1" vertex="1">
          <mxGeometry x="414" y="377" width="120" height="60" as="geometry" />
        </mxCell>
        <mxCell id="1klOGRE0AHraYYgsHShA-5" style="edgeStyle=orthogonalEdgeStyle;rounded=0;orthogonalLoop=1;jettySize=auto;html=1;exitX=0.5;exitY=0;exitDx=0;exitDy=0;entryX=0.5;entryY=1;entryDx=0;entryDy=0;" parent="1" source="1klOGRE0AHraYYgsHShA-3" target="JX9ZoOWEHtZjX-4A8KNV-1" edge="1">
          <mxGeometry relative="1" as="geometry" />
        </mxCell>
        <mxCell id="1klOGRE0AHraYYgsHShA-3" value="Exiba &quot;Nota Inválida, ensira um valor entre 0 e 10&quot;" style="whiteSpace=wrap;html=1;" parent="1" vertex="1">
          <mxGeometry x="834" y="377" width="120" height="60" as="geometry" />
        </mxCell>
        <mxCell id="1klOGRE0AHraYYgsHShA-13" value="" style="edgeStyle=orthogonalEdgeStyle;rounded=0;orthogonalLoop=1;jettySize=auto;html=1;" parent="1" source="1klOGRE0AHraYYgsHShA-7" target="1klOGRE0AHraYYgsHShA-12" edge="1">
          <mxGeometry relative="1" as="geometry" />
        </mxCell>
        <mxCell id="1klOGRE0AHraYYgsHShA-7" value="ler frequência &lt;br&gt;$&lt;b&gt;freq&lt;/b&gt;" style="whiteSpace=wrap;html=1;" parent="1" vertex="1">
          <mxGeometry x="414" y="487" width="120" height="60" as="geometry" />
        </mxCell>
        <mxCell id="1klOGRE0AHraYYgsHShA-16" style="edgeStyle=orthogonalEdgeStyle;rounded=0;orthogonalLoop=1;jettySize=auto;html=1;exitX=0.5;exitY=1;exitDx=0;exitDy=0;entryX=1;entryY=0.5;entryDx=0;entryDy=0;" parent="1" source="1klOGRE0AHraYYgsHShA-12" target="1klOGRE0AHraYYgsHShA-15" edge="1">
          <mxGeometry relative="1" as="geometry" />
        </mxCell>
        <mxCell id="1klOGRE0AHraYYgsHShA-18" value="$freq &amp;lt; 0 &amp;amp;&amp;amp; $freq &amp;gt; 100" style="edgeLabel;html=1;align=center;verticalAlign=middle;resizable=0;points=[];" parent="1klOGRE0AHraYYgsHShA-16" vertex="1" connectable="0">
          <mxGeometry x="-0.2511" y="1" relative="1" as="geometry">
            <mxPoint x="-38" y="-8" as="offset" />
          </mxGeometry>
        </mxCell>
        <mxCell id="1klOGRE0AHraYYgsHShA-21" value="" style="edgeStyle=orthogonalEdgeStyle;rounded=0;orthogonalLoop=1;jettySize=auto;html=1;" parent="1" source="1klOGRE0AHraYYgsHShA-12" target="1klOGRE0AHraYYgsHShA-20" edge="1">
          <mxGeometry relative="1" as="geometry" />
        </mxCell>
        <mxCell id="1klOGRE0AHraYYgsHShA-22" value="$freq &amp;gt; 0 &amp;amp;&amp;amp; $freq &amp;lt; 101" style="edgeLabel;html=1;align=center;verticalAlign=middle;resizable=0;points=[];" parent="1klOGRE0AHraYYgsHShA-21" vertex="1" connectable="0">
          <mxGeometry x="-0.2133" y="-2" relative="1" as="geometry">
            <mxPoint x="11" y="-2" as="offset" />
          </mxGeometry>
        </mxCell>
        <mxCell id="1klOGRE0AHraYYgsHShA-12" value="" style="rhombus;whiteSpace=wrap;html=1;" parent="1" vertex="1">
          <mxGeometry x="604" y="477" width="80" height="80" as="geometry" />
        </mxCell>
        <mxCell id="1klOGRE0AHraYYgsHShA-17" style="edgeStyle=orthogonalEdgeStyle;rounded=0;orthogonalLoop=1;jettySize=auto;html=1;exitX=0.5;exitY=0;exitDx=0;exitDy=0;entryX=0.5;entryY=1;entryDx=0;entryDy=0;" parent="1" source="1klOGRE0AHraYYgsHShA-15" target="1klOGRE0AHraYYgsHShA-7" edge="1">
          <mxGeometry relative="1" as="geometry" />
        </mxCell>
        <mxCell id="1klOGRE0AHraYYgsHShA-15" value="Exiba &quot;Numero Inválido, ensira um valor entre 0 e 100&quot;" style="whiteSpace=wrap;html=1;" parent="1" vertex="1">
          <mxGeometry x="414" y="597" width="120" height="60" as="geometry" />
        </mxCell>
        <mxCell id="x9PLwvVX-qWCBWbd__RO-4" style="edgeStyle=orthogonalEdgeStyle;rounded=0;orthogonalLoop=1;jettySize=auto;html=1;exitX=0.5;exitY=1;exitDx=0;exitDy=0;entryX=0.5;entryY=0;entryDx=0;entryDy=0;" parent="1" source="1klOGRE0AHraYYgsHShA-20" target="x9PLwvVX-qWCBWbd__RO-3" edge="1">
          <mxGeometry relative="1" as="geometry" />
        </mxCell>
        <mxCell id="1klOGRE0AHraYYgsHShA-20" value="calcule média:&lt;br&gt;$&lt;b&gt;MEDIA &lt;/b&gt;= ($n1 + $n2) / 2" style="whiteSpace=wrap;html=1;" parent="1" vertex="1">
          <mxGeometry x="1064" y="487" width="160" height="60" as="geometry" />
        </mxCell>
        <mxCell id="rlqkiJoejGQv8Fook3eO-4" value="" style="edgeStyle=orthogonalEdgeStyle;rounded=0;orthogonalLoop=1;jettySize=auto;html=1;entryX=0.5;entryY=0;entryDx=0;entryDy=0;" parent="1" source="rlqkiJoejGQv8Fook3eO-1" target="rlqkiJoejGQv8Fook3eO-3" edge="1">
          <mxGeometry relative="1" as="geometry" />
        </mxCell>
        <mxCell id="rlqkiJoejGQv8Fook3eO-7" value="$freq &amp;lt; 70" style="edgeLabel;html=1;align=center;verticalAlign=middle;resizable=0;points=[];" parent="rlqkiJoejGQv8Fook3eO-4" vertex="1" connectable="0">
          <mxGeometry x="-0.0362" y="1" relative="1" as="geometry">
            <mxPoint as="offset" />
          </mxGeometry>
        </mxCell>
        <mxCell id="rlqkiJoejGQv8Fook3eO-6" value="" style="edgeStyle=orthogonalEdgeStyle;rounded=0;orthogonalLoop=1;jettySize=auto;html=1;entryX=0.5;entryY=0;entryDx=0;entryDy=0;" parent="1" source="rlqkiJoejGQv8Fook3eO-1" target="rlqkiJoejGQv8Fook3eO-5" edge="1">
          <mxGeometry relative="1" as="geometry" />
        </mxCell>
        <mxCell id="rlqkiJoejGQv8Fook3eO-8" value="$freq &amp;gt; 69" style="edgeLabel;html=1;align=center;verticalAlign=middle;resizable=0;points=[];" parent="rlqkiJoejGQv8Fook3eO-6" vertex="1" connectable="0">
          <mxGeometry x="-0.2667" y="1" relative="1" as="geometry">
            <mxPoint as="offset" />
          </mxGeometry>
        </mxCell>
        <mxCell id="rlqkiJoejGQv8Fook3eO-1" value="" style="rhombus;whiteSpace=wrap;html=1;" parent="1" vertex="1">
          <mxGeometry x="784" y="657" width="80" height="80" as="geometry" />
        </mxCell>
        <mxCell id="x9PLwvVX-qWCBWbd__RO-11" style="edgeStyle=orthogonalEdgeStyle;rounded=0;orthogonalLoop=1;jettySize=auto;html=1;exitX=0.5;exitY=1;exitDx=0;exitDy=0;entryX=0;entryY=0.5;entryDx=0;entryDy=0;" parent="1" source="rlqkiJoejGQv8Fook3eO-3" edge="1">
          <mxGeometry relative="1" as="geometry">
            <mxPoint x="784" y="833" as="targetPoint" />
          </mxGeometry>
        </mxCell>
        <mxCell id="rlqkiJoejGQv8Fook3eO-3" value="&lt;font style=&quot;font-size: 12px;&quot; face=&quot;Verdana&quot;&gt;&lt;span style=&quot;font-style: normal; font-variant-ligatures: normal; font-variant-caps: normal; font-weight: 400; letter-spacing: normal; orphans: 2; text-align: left; text-indent: 0px; text-transform: none; widows: 2; word-spacing: 0px; -webkit-text-stroke-width: 0px; background-color: rgb(255, 255, 255); text-decoration-thickness: initial; text-decoration-style: initial; text-decoration-color: initial; float: none; display: inline !important;&quot;&gt;&amp;nbsp;Exiba &quot;Parabéns, aprovado&quot;&amp;nbsp;&lt;/span&gt;&lt;br&gt;&lt;/font&gt;" style="whiteSpace=wrap;html=1;" parent="1" vertex="1">
          <mxGeometry x="604" y="733" width="120" height="60" as="geometry" />
        </mxCell>
        <mxCell id="x9PLwvVX-qWCBWbd__RO-10" style="edgeStyle=orthogonalEdgeStyle;rounded=0;orthogonalLoop=1;jettySize=auto;html=1;exitX=0.5;exitY=1;exitDx=0;exitDy=0;entryX=1;entryY=0.5;entryDx=0;entryDy=0;" parent="1" source="rlqkiJoejGQv8Fook3eO-5" edge="1">
          <mxGeometry relative="1" as="geometry">
            <mxPoint x="864" y="833" as="targetPoint" />
          </mxGeometry>
        </mxCell>
        <mxCell id="rlqkiJoejGQv8Fook3eO-5" value="Exiba &quot;Infelizmente, reprovado&quot;&amp;nbsp;" style="whiteSpace=wrap;html=1;" parent="1" vertex="1">
          <mxGeometry x="924" y="733" width="120" height="60" as="geometry" />
        </mxCell>
        <mxCell id="x9PLwvVX-qWCBWbd__RO-5" style="edgeStyle=orthogonalEdgeStyle;rounded=0;orthogonalLoop=1;jettySize=auto;html=1;exitX=0.5;exitY=1;exitDx=0;exitDy=0;entryX=0.75;entryY=0;entryDx=0;entryDy=0;" parent="1" source="x9PLwvVX-qWCBWbd__RO-3" target="rlqkiJoejGQv8Fook3eO-5" edge="1">
          <mxGeometry relative="1" as="geometry" />
        </mxCell>
        <mxCell id="x9PLwvVX-qWCBWbd__RO-6" value="$media &amp;lt; 6" style="edgeLabel;html=1;align=center;verticalAlign=middle;resizable=0;points=[];" parent="x9PLwvVX-qWCBWbd__RO-5" vertex="1" connectable="0">
          <mxGeometry x="-0.4612" y="-1" relative="1" as="geometry">
            <mxPoint x="-25" as="offset" />
          </mxGeometry>
        </mxCell>
        <mxCell id="x9PLwvVX-qWCBWbd__RO-7" style="edgeStyle=orthogonalEdgeStyle;rounded=0;orthogonalLoop=1;jettySize=auto;html=1;exitX=0;exitY=0.5;exitDx=0;exitDy=0;entryX=0.5;entryY=0;entryDx=0;entryDy=0;" parent="1" source="x9PLwvVX-qWCBWbd__RO-3" target="rlqkiJoejGQv8Fook3eO-1" edge="1">
          <mxGeometry relative="1" as="geometry">
            <mxPoint x="814" y="687" as="targetPoint" />
            <Array as="points">
              <mxPoint x="824" y="617" />
            </Array>
          </mxGeometry>
        </mxCell>
        <mxCell id="x9PLwvVX-qWCBWbd__RO-8" value="$media &amp;gt; 5" style="edgeLabel;html=1;align=center;verticalAlign=middle;resizable=0;points=[];" parent="x9PLwvVX-qWCBWbd__RO-7" vertex="1" connectable="0">
          <mxGeometry x="0.1567" relative="1" as="geometry">
            <mxPoint x="137" as="offset" />
          </mxGeometry>
        </mxCell>
        <mxCell id="x9PLwvVX-qWCBWbd__RO-3" value="" style="rhombus;whiteSpace=wrap;html=1;" parent="1" vertex="1">
          <mxGeometry x="1104" y="577" width="80" height="80" as="geometry" />
        </mxCell>
        <mxCell id="M6AxixyLLfqq6H0Irw2X-3" value="" style="edgeStyle=orthogonalEdgeStyle;rounded=0;orthogonalLoop=1;jettySize=auto;html=1;" edge="1" parent="1" source="M6AxixyLLfqq6H0Irw2X-1" target="M6AxixyLLfqq6H0Irw2X-2">
          <mxGeometry relative="1" as="geometry" />
        </mxCell>
        <mxCell id="M6AxixyLLfqq6H0Irw2X-1" value="Exiba &quot;Deseja cadastrar um novo aluno?&quot;" style="whiteSpace=wrap;html=1;" vertex="1" parent="1">
          <mxGeometry x="764" y="833" width="120" height="60" as="geometry" />
        </mxCell>
        <mxCell id="M6AxixyLLfqq6H0Irw2X-5" value="" style="edgeStyle=orthogonalEdgeStyle;rounded=0;orthogonalLoop=1;jettySize=auto;html=1;entryX=0;entryY=0.5;entryDx=0;entryDy=0;" edge="1" parent="1" source="M6AxixyLLfqq6H0Irw2X-2" target="rRPSB2-Us4d2gIfYwCOe-2">
          <mxGeometry relative="1" as="geometry">
            <mxPoint x="724" y="973" as="targetPoint" />
          </mxGeometry>
        </mxCell>
        <mxCell id="M6AxixyLLfqq6H0Irw2X-10" value="Sim" style="edgeLabel;html=1;align=center;verticalAlign=middle;resizable=0;points=[];" vertex="1" connectable="0" parent="M6AxixyLLfqq6H0Irw2X-5">
          <mxGeometry x="-0.9343" y="-1" relative="1" as="geometry">
            <mxPoint as="offset" />
          </mxGeometry>
        </mxCell>
        <mxCell id="M6AxixyLLfqq6H0Irw2X-7" value="" style="edgeStyle=orthogonalEdgeStyle;rounded=0;orthogonalLoop=1;jettySize=auto;html=1;entryX=0;entryY=0.5;entryDx=0;entryDy=0;" edge="1" parent="1" source="M6AxixyLLfqq6H0Irw2X-2" target="M6AxixyLLfqq6H0Irw2X-11">
          <mxGeometry relative="1" as="geometry">
            <mxPoint x="924" y="973" as="targetPoint" />
          </mxGeometry>
        </mxCell>
        <mxCell id="M6AxixyLLfqq6H0Irw2X-9" value="Não" style="edgeLabel;html=1;align=center;verticalAlign=middle;resizable=0;points=[];" vertex="1" connectable="0" parent="M6AxixyLLfqq6H0Irw2X-7">
          <mxGeometry x="-0.2333" y="-1" relative="1" as="geometry">
            <mxPoint x="-75" y="-1" as="offset" />
          </mxGeometry>
        </mxCell>
        <mxCell id="M6AxixyLLfqq6H0Irw2X-2" value="" style="rhombus;whiteSpace=wrap;html=1;" vertex="1" parent="1">
          <mxGeometry x="784" y="933" width="80" height="80" as="geometry" />
        </mxCell>
        <mxCell id="M6AxixyLLfqq6H0Irw2X-11" value="" style="ellipse;whiteSpace=wrap;html=1;fillColor=#fa6800;fontColor=#000000;strokeColor=#C73500;" vertex="1" parent="1">
          <mxGeometry x="1144" y="933" width="80" height="80" as="geometry" />
        </mxCell>
      </root>
    </mxGraphModel>
  </diagram>
</mxfile>
